<svg width="334" height="334" viewBox="0 0 334 334" fill="none" xmlns="http://www.w3.org/2000/svg">
<path d="M199.841 63.8434C204.892 63.8434 203.142 64.9273 208.055 63.8434L212.508 143.189C209.85 144.97 209.024 143.189 205.856 143.189C200.702 143.189 198.405 142.502 194.744 138.823C191.742 135.806 190.767 133.258 189.272 129.125C186.519 121.517 183.337 114.229 180.708 106.581C178.492 100.136 178.034 94.4683 178.034 87.6471C178.034 83.5323 177.494 78.0726 180.708 74.8427C183.693 71.8422 187.051 69.1401 190.065 66.1104C192.919 63.2428 196.083 63.8434 199.841 63.8434Z" fill="#9E9E9E"/>
<path fill-rule="evenodd" clip-rule="evenodd" d="M213.257 137.209C212.797 129.029 212.342 120.962 211.642 114.631C211.262 111.189 210.824 107.701 210.383 104.183C208.16 86.4558 205.842 67.9735 210.22 50.7428C210.581 49.3208 210.873 47.7705 211.173 46.1754C212.093 41.2912 213.091 35.9866 216.404 32.6576C220.787 28.2526 224.946 26.2587 230.338 23.6738C230.697 23.5018 231.061 23.3271 231.432 23.1489C235.31 21.2824 239.383 19.9665 243.458 18.6501C247.122 17.4663 250.787 16.2822 254.313 14.6968C256.793 13.5821 261.272 13.9407 263.775 14.8211C278.974 20.167 289.081 32.7504 294.882 47.3246C297.385 53.6147 299.303 60.1057 301.221 66.5959C302.233 70.0221 303.245 73.449 304.344 76.8451C306.16 82.4621 307.095 87.9309 308.04 93.4528C308.583 96.6286 309.129 99.8224 309.848 103.072C311.362 109.923 311.059 116.057 310.738 122.557C310.62 124.944 310.5 127.381 310.466 129.92C310.431 132.578 310.534 135.32 310.638 138.088C310.87 144.224 311.106 150.49 309.848 156.271C308.629 161.869 306.692 169.089 302.921 173.299C294.001 183.259 284.416 168.906 277.622 158.732C275.955 156.235 274.455 153.99 273.175 152.417C272.085 151.079 271.149 149.074 270.186 147.011C268.692 143.811 267.131 140.468 264.826 139.242C260.084 136.719 254.756 139.562 251.53 143.344C246.705 149.001 245.921 155.012 245.09 161.384C244.61 165.069 244.113 168.874 242.811 172.802C240.552 179.61 236.245 182 229.7 182C224.178 182 218.63 175.288 218.63 175.288C215.231 172.252 214.23 154.476 213.257 137.209ZM248.376 51.1156C255.379 46.7848 270.949 48.319 270.949 48.319C270.949 48.319 285.976 48.0477 285.976 57.8277L285.976 58.064C285.977 64.747 285.978 73.3631 280.844 78.523C272.483 86.925 259.364 86.9187 248.11 86.9133C247.827 86.9132 247.544 86.9131 247.263 86.9131C246.811 86.9131 246.367 86.9142 245.93 86.9154C238.791 86.9339 233.723 86.9471 228.154 81.8169C224.154 78.1319 227.561 67.7275 230.38 64.5397C234.877 59.4561 241.869 55.1363 247.7 51.5338C247.927 51.3933 248.153 51.254 248.376 51.1156Z" fill="#9E9E9E"/>
<path d="M199.841 63.8434C204.892 63.8434 203.142 64.9273 208.055 63.8434L212.508 143.189C209.85 144.97 209.024 143.189 205.856 143.189C200.702 143.189 198.405 142.502 194.744 138.823C191.742 135.806 190.767 133.258 189.272 129.125C186.519 121.517 183.337 114.229 180.708 106.581C178.492 100.136 178.034 94.4683 178.034 87.6471C178.034 83.5323 177.494 78.0726 180.708 74.8427C183.693 71.8422 187.051 69.1401 190.065 66.1104C192.919 63.2428 196.083 63.8434 199.841 63.8434Z" stroke="#9E9E9E" stroke-width="7" stroke-linecap="round"/>
<path fill-rule="evenodd" clip-rule="evenodd" d="M213.257 137.209C212.797 129.029 212.342 120.962 211.642 114.631C211.262 111.189 210.824 107.701 210.383 104.183C208.16 86.4558 205.842 67.9735 210.22 50.7428C210.581 49.3208 210.873 47.7705 211.173 46.1754C212.093 41.2912 213.091 35.9866 216.404 32.6576C220.787 28.2526 224.946 26.2587 230.338 23.6738C230.697 23.5018 231.061 23.3271 231.432 23.1489C235.31 21.2824 239.383 19.9665 243.458 18.6501C247.122 17.4663 250.787 16.2822 254.313 14.6968C256.793 13.5821 261.272 13.9407 263.775 14.8211C278.974 20.167 289.081 32.7504 294.882 47.3246C297.385 53.6147 299.303 60.1057 301.221 66.5959C302.233 70.0221 303.245 73.449 304.344 76.8451C306.16 82.4621 307.095 87.9309 308.04 93.4528C308.583 96.6286 309.129 99.8224 309.848 103.072C311.362 109.923 311.059 116.057 310.738 122.557C310.62 124.944 310.5 127.381 310.466 129.92C310.431 132.578 310.534 135.32 310.638 138.088C310.87 144.224 311.106 150.49 309.848 156.271C308.629 161.869 306.692 169.089 302.921 173.299C294.001 183.259 284.416 168.906 277.622 158.732C275.955 156.235 274.455 153.99 273.175 152.417C272.085 151.079 271.149 149.074 270.186 147.011C268.692 143.811 267.131 140.468 264.826 139.242C260.084 136.719 254.756 139.562 251.53 143.344C246.705 149.001 245.921 155.012 245.09 161.384C244.61 165.069 244.113 168.874 242.811 172.802C240.552 179.61 236.245 182 229.7 182C224.178 182 218.63 175.288 218.63 175.288C215.231 172.252 214.23 154.476 213.257 137.209ZM248.376 51.1156C255.379 46.7848 270.949 48.319 270.949 48.319C270.949 48.319 285.976 48.0477 285.976 57.8277L285.976 58.064C285.977 64.747 285.978 73.3631 280.844 78.523C272.483 86.925 259.364 86.9187 248.11 86.9133C247.827 86.9132 247.544 86.9131 247.263 86.9131C246.811 86.9131 246.367 86.9142 245.93 86.9154C238.791 86.9339 233.723 86.9471 228.154 81.8169C224.154 78.1319 227.561 67.7275 230.38 64.5397C234.877 59.4561 241.869 55.1363 247.7 51.5338C247.927 51.3933 248.153 51.254 248.376 51.1156Z" stroke="#9E9E9E" stroke-width="7" stroke-linecap="round"/>
<path d="M42.8408 203.843C47.8921 203.843 46.142 204.927 51.0553 203.843L55.5079 283.189C52.8498 284.97 52.0237 283.189 48.8565 283.189C43.7017 283.189 41.4051 282.502 37.7443 278.823C34.742 275.806 33.7672 273.258 32.2717 269.125C29.5186 261.517 26.337 254.229 23.7078 246.581C21.4922 240.136 21.0342 234.468 21.0342 227.647C21.0342 223.532 20.4938 218.073 23.7078 214.843C26.6935 211.842 30.0507 209.14 33.0655 206.11C35.919 203.243 39.0825 203.843 42.8408 203.843Z" fill="#9E9E9E"/>
<path fill-rule="evenodd" clip-rule="evenodd" d="M56.2574 277.209C55.7965 269.029 55.3421 260.962 54.6421 254.631C54.2615 251.189 53.8241 247.701 53.383 244.183C51.1599 226.456 48.8421 207.974 53.2198 190.743C53.581 189.321 53.8729 187.771 54.1732 186.175C55.0927 181.291 56.0914 175.987 59.404 172.658C63.7873 168.253 67.9464 166.259 73.3382 163.674C73.6971 163.502 74.0614 163.327 74.4316 163.149C78.3101 161.282 82.3831 159.967 86.4576 158.65C90.1216 157.466 93.7869 156.282 97.3132 154.697C99.7927 153.582 104.272 153.941 106.775 154.821C121.974 160.167 132.081 172.75 137.882 187.325C140.385 193.615 142.303 200.106 144.221 206.596C145.233 210.022 146.245 213.449 147.344 216.845C149.16 222.462 150.095 227.931 151.04 233.453C151.583 236.629 152.129 239.822 152.848 243.072C154.362 249.923 154.059 256.057 153.738 262.557C153.62 264.944 153.5 267.381 153.466 269.92C153.431 272.578 153.534 275.32 153.638 278.088C153.87 284.224 154.106 290.49 152.848 296.271C151.629 301.869 149.692 309.089 145.921 313.299C137.001 323.259 127.416 308.906 120.622 298.732C118.955 296.235 117.455 293.99 116.175 292.417C115.085 291.079 114.149 289.074 113.186 287.011C111.692 283.811 110.131 280.468 107.826 279.242C103.084 276.719 97.7556 279.562 94.5303 283.344C89.705 289.001 88.9211 295.012 88.0902 301.384C87.6097 305.069 87.1134 308.874 85.8106 312.802C83.5524 319.61 79.2454 322 72.7001 322C67.1775 322 61.6303 315.288 61.6303 315.288C58.2315 312.252 57.2301 294.476 56.2574 277.209ZM91.3764 191.116C98.3793 186.785 113.949 188.319 113.949 188.319C113.949 188.319 128.976 188.048 128.976 197.828L128.976 198.064C128.977 204.747 128.978 213.363 123.844 218.523C115.483 226.925 102.364 226.919 91.1102 226.913C90.8267 226.913 90.5443 226.913 90.2632 226.913C89.8108 226.913 89.3667 226.914 88.9303 226.915C81.7913 226.934 76.723 226.947 71.154 221.817C67.1538 218.132 70.5606 207.728 73.3803 204.54C77.8768 199.456 84.8687 195.136 90.6997 191.534C90.9271 191.393 91.1527 191.254 91.3764 191.116Z" fill="#9E9E9E"/>
<path d="M42.8408 203.843C47.8921 203.843 46.142 204.927 51.0553 203.843L55.5079 283.189C52.8498 284.97 52.0237 283.189 48.8565 283.189C43.7017 283.189 41.4051 282.502 37.7443 278.823C34.742 275.806 33.7672 273.258 32.2717 269.125C29.5186 261.517 26.337 254.229 23.7078 246.581C21.4922 240.136 21.0342 234.468 21.0342 227.647C21.0342 223.532 20.4938 218.073 23.7078 214.843C26.6935 211.842 30.0507 209.14 33.0655 206.11C35.919 203.243 39.0825 203.843 42.8408 203.843Z" stroke="#9E9E9E" stroke-width="7" stroke-linecap="round"/>
<path fill-rule="evenodd" clip-rule="evenodd" d="M56.2574 277.209C55.7965 269.029 55.3421 260.962 54.6421 254.631C54.2615 251.189 53.8241 247.701 53.383 244.183C51.1599 226.456 48.8421 207.974 53.2198 190.743C53.581 189.321 53.8729 187.771 54.1732 186.175C55.0927 181.291 56.0914 175.987 59.404 172.658C63.7873 168.253 67.9464 166.259 73.3382 163.674C73.6971 163.502 74.0614 163.327 74.4316 163.149C78.3101 161.282 82.3831 159.967 86.4576 158.65C90.1216 157.466 93.7869 156.282 97.3132 154.697C99.7927 153.582 104.272 153.941 106.775 154.821C121.974 160.167 132.081 172.75 137.882 187.325C140.385 193.615 142.303 200.106 144.221 206.596C145.233 210.022 146.245 213.449 147.344 216.845C149.16 222.462 150.095 227.931 151.04 233.453C151.583 236.629 152.129 239.822 152.848 243.072C154.362 249.923 154.059 256.057 153.738 262.557C153.62 264.944 153.5 267.381 153.466 269.92C153.431 272.578 153.534 275.32 153.638 278.088C153.87 284.224 154.106 290.49 152.848 296.271C151.629 301.869 149.692 309.089 145.921 313.299C137.001 323.259 127.416 308.906 120.622 298.732C118.955 296.235 117.455 293.99 116.175 292.417C115.085 291.079 114.149 289.074 113.186 287.011C111.692 283.811 110.131 280.468 107.826 279.242C103.084 276.719 97.7556 279.562 94.5303 283.344C89.705 289.001 88.9211 295.012 88.0902 301.384C87.6097 305.069 87.1134 308.874 85.8106 312.802C83.5524 319.61 79.2454 322 72.7001 322C67.1775 322 61.6303 315.288 61.6303 315.288C58.2315 312.252 57.2301 294.476 56.2574 277.209ZM91.3764 191.116C98.3793 186.785 113.949 188.319 113.949 188.319C113.949 188.319 128.976 188.048 128.976 197.828L128.976 198.064C128.977 204.747 128.978 213.363 123.844 218.523C115.483 226.925 102.364 226.919 91.1102 226.913C90.8267 226.913 90.5443 226.913 90.2632 226.913C89.8108 226.913 89.3667 226.914 88.9303 226.915C81.7913 226.934 76.723 226.947 71.154 221.817C67.1538 218.132 70.5606 207.728 73.3803 204.54C77.8768 199.456 84.8687 195.136 90.6997 191.534C90.9271 191.393 91.1527 191.254 91.3764 191.116Z" stroke="#9E9E9E" stroke-width="7" stroke-linecap="round"/>
</svg>
