<svg width="333" height="414" viewBox="0 0 333 414" fill="none" xmlns="http://www.w3.org/2000/svg">
<mask id="mask0_310_134" style="mask-type:alpha" maskUnits="userSpaceOnUse" x="50" y="373" width="75" height="41">
<path d="M58.2302 383.055C72.3012 379.74 111.7 370.126 117.84 375.099C123.98 380.071 128.074 397.973 117.84 408.25C107.607 418.526 61.5561 410.57 56.4393 408.25C51.3225 405.929 44.1591 386.37 58.2302 383.055Z" fill="#1B1B1B"/>
</mask>
<g mask="url(#mask0_310_134)">
<rect x="15.6167" y="345.262" width="144.83" height="85.3106" fill="#DB222D"/>
</g>
<path d="M134.985 307.019C127.267 296.145 83.3502 298.808 79.6291 307.019L69.5119 377.157C67.4219 389.697 123.1 402.057 130.818 393.181C134.641 388.784 129.751 368.876 130.818 349.988C131.906 330.744 138.88 312.506 134.985 307.019Z" fill="#192347"/>
<path d="M46.0373 390.554C44.384 380.965 47.9686 380.554 66.2077 379.642C84.4467 378.73 83.7327 405.103 83.7327 411.386C83.7327 417.668 53.6425 408.079 53.6425 408.079C53.6425 408.079 47.6906 400.143 46.0373 390.554Z" fill="#AD162B"/>
<mask id="mask1_310_134" style="mask-type:alpha" maskUnits="userSpaceOnUse" x="149" y="373" width="75" height="41">
<path d="M215.179 383.055C201.107 379.74 161.709 370.126 155.568 375.099C149.428 380.071 145.335 397.973 155.568 408.25C165.802 418.526 211.853 410.57 216.969 408.25C222.086 405.929 229.25 386.37 215.179 383.055Z" fill="#1B1B1B"/>
</mask>
<g mask="url(#mask1_310_134)">
<rect width="144.83" height="85.3106" transform="matrix(-1 0 0 1 257.792 345.262)" fill="#DB222D"/>
</g>
<path d="M138.423 307.019C146.141 296.145 190.058 298.808 193.779 307.019L206.058 379.944C199.994 388.821 147.539 398.057 142.662 393.877C137.785 389.697 142.662 365.314 142.662 350.684C142.662 336.054 134.192 312.98 138.423 307.019Z" fill="#192347"/>
<path d="M227.371 390.554C229.025 380.965 225.44 380.554 207.201 379.642C188.962 378.73 189.676 405.103 189.676 411.386C189.676 417.668 219.766 408.079 219.766 408.079C219.766 408.079 225.718 400.143 227.371 390.554Z" fill="#AD162B"/>
<path d="M289.936 186.391C277.435 183.729 266.005 181.943 235.712 184.542C205.42 187.141 190.298 192.588 177.646 199.759C164.994 206.931 166.843 228.49 180.674 235.049C194.504 241.609 282.852 231.401 298.326 222.327C313.8 213.253 302.437 189.053 289.936 186.391Z" fill="#DB222D"/>
<path d="M225.15 255.054C214.162 254.422 179.601 221.965 179.601 221.965L215.647 213.685L249.313 242.245C249.313 242.245 236.137 255.686 225.15 255.054Z" fill="#DB222D"/>
<path d="M262.739 254.862C251.752 254.23 217.19 221.773 217.19 221.773L253.236 213.493L286.902 242.053C286.902 242.053 273.727 255.494 262.739 254.862Z" fill="#DB222D"/>
<path d="M289.668 245.706C278.68 245.074 244.119 212.616 244.119 212.616L280.165 204.336L313.831 232.896C313.831 232.896 300.655 246.338 289.668 245.706Z" fill="#DB222D"/>
<path d="M82.0766 212.374C94.3041 202.582 105.54 195.328 135.944 195.328C166.347 195.328 181.879 206.209 195.098 222.167C208.317 238.125 208.317 295.065 195.098 315.375C181.879 335.686 94.7618 335.686 78.5686 315.375C62.3754 295.065 69.8491 222.167 82.0766 212.374Z" fill="#A8A8B6"/>
<g opacity="0.5">
<path d="M120.603 269.632L116.17 226.367C146.9 228.389 163.137 226.41 190.779 218.721L191.957 230.217L170.721 239.139L145.63 282.931L129.001 287.133C124.551 282.325 121.309 276.516 120.603 269.632Z" fill="#272727"/>
<path d="M191.914 264.5C194.233 287.121 157.5 307.5 157.5 307.5C157.5 307.5 141.172 300.284 129.001 287.133L145.63 282.931L170.678 239.268L191.914 230.346C192.746 238.459 190.673 252.389 191.914 264.5Z" fill="#FFB39F"/>
<path d="M175.693 240.917C178.544 238.284 188.541 235.274 192.4 234.544L191.666 227.374C191.666 227.374 177.782 228.891 176.551 229.766C175.32 230.642 164.787 241.065 163.188 245.764C161.589 250.462 153.135 254.199 152.148 256.129C151.16 258.059 151.037 263.246 153.029 264.724C155.02 266.202 158.58 264.85 159.759 264.034C160.938 263.219 164.744 256.993 165.538 257.032C166.333 257.072 168.526 258.62 169.246 260.959C170.146 263.884 172.744 257.035 170.372 252.433C168 247.83 172.13 244.207 175.693 240.917Z" fill="#4360AC"/>
<path d="M144.65 277.215C141.8 279.848 130.029 282.945 126.17 283.676C126.17 283.676 127.152 285.199 129.162 287.366C131.173 289.534 132.363 290.411 132.363 290.411C132.363 290.411 142.562 289.241 143.793 288.365C145.023 287.49 155.557 277.066 157.156 272.368C158.755 267.669 167.209 263.932 168.196 262.002C169.183 260.073 169.307 254.885 167.315 253.407C165.323 251.929 165.958 254.171 164.779 254.987C164.232 255.365 162.645 258.625 161.263 260.718C159.666 263.138 156.405 265.039 153.646 263.494C150.887 261.948 151.818 259.512 151.098 257.172C150.198 254.247 147.599 261.096 149.971 265.699C152.343 270.301 148.214 273.924 144.65 277.215Z" fill="#C02C2C"/>
<path fill-rule="evenodd" clip-rule="evenodd" d="M136.067 243.315L136.295 245.54L128.943 246.293L128.851 233.312L131.71 233.019L131.703 230.271L122.854 231.178L122.847 233.802L125.57 233.523L125.811 246.614L122.952 246.907L123.206 249.379L138.999 247.761L138.926 243.022L136.067 243.315Z" fill="white"/>
<path fill-rule="evenodd" clip-rule="evenodd" d="M130.608 238.378L130.706 254.107C130.706 254.107 133.718 255.297 137.815 255.002C141.912 254.707 144.334 252.835 144.334 252.835L144.235 237.106C144.235 237.106 142.982 235.611 137.808 236.141C132.634 236.671 130.608 238.378 130.608 238.378ZM133.835 252.412L133.879 239.417L141.256 238.911L141.187 251.659L133.835 252.412Z" fill="white"/>
</g>
<path d="M62.7371 205.882C59.1025 190.622 86.3606 133 86.3606 133L111.432 179.79L88.7609 234.954C88.7609 234.954 66.3717 221.141 62.7371 205.882Z" fill="#AD162B"/>
<path d="M62.7371 205.882C59.1025 190.622 86.3606 133 86.3606 133L111.432 179.79L88.7609 234.954C88.7609 234.954 66.3717 221.141 62.7371 205.882Z" fill="#AD162B"/>
<path d="M62.7371 205.882C59.1025 190.622 86.3606 133 86.3606 133L111.432 179.79L88.7609 234.954C88.7609 234.954 66.3717 221.141 62.7371 205.882Z" fill="#AD162B"/>
<path d="M62.7371 205.882C59.1025 190.622 86.3606 133 86.3606 133L111.432 179.79L88.7609 234.954C88.7609 234.954 66.3717 221.141 62.7371 205.882Z" fill="#AD162B"/>
<path d="M36.543 120.858C35.5322 105.204 72.112 53 72.112 53L88.9386 103.346L57.2946 153.9C57.2946 153.9 37.5538 136.511 36.543 120.858Z" fill="#AD162B"/>
<path d="M36.543 120.858C35.5322 105.204 72.112 53 72.112 53L88.9386 103.346L57.2946 153.9C57.2946 153.9 37.5538 136.511 36.543 120.858Z" fill="#AD162B"/>
<path d="M36.543 120.858C35.5322 105.204 72.112 53 72.112 53L88.9386 103.346L57.2946 153.9C57.2946 153.9 37.5538 136.511 36.543 120.858Z" fill="#AD162B"/>
<path d="M36.543 120.858C35.5322 105.204 72.112 53 72.112 53L88.9386 103.346L57.2946 153.9C57.2946 153.9 37.5538 136.511 36.543 120.858Z" fill="#AD162B"/>
<path d="M36.5457 162.858C35.5349 147.204 72.1147 95 72.1147 95L88.9413 145.346L57.2972 195.9C57.2972 195.9 37.5565 178.511 36.5457 162.858Z" fill="#AD162B"/>
<path d="M36.5457 162.858C35.5349 147.204 72.1147 95 72.1147 95L88.9413 145.346L57.2972 195.9C57.2972 195.9 37.5565 178.511 36.5457 162.858Z" fill="#AD162B"/>
<path d="M36.5457 162.858C35.5349 147.204 72.1147 95 72.1147 95L88.9413 145.346L57.2972 195.9C57.2972 195.9 37.5565 178.511 36.5457 162.858Z" fill="#AD162B"/>
<path d="M36.5457 162.858C35.5349 147.204 72.1147 95 72.1147 95L88.9413 145.346L57.2972 195.9C57.2972 195.9 37.5565 178.511 36.5457 162.858Z" fill="#AD162B"/>
<path d="M92.922 36.7554C108.089 40.7587 146.005 92 146.005 92H92.922L55.0054 45.9629C55.0054 45.9629 77.7554 32.7522 92.922 36.7554Z" fill="#DB222D"/>
<path d="M125.505 1.49996C144.505 6.49996 192.005 70.5 192.005 70.5H125.505L78.0055 13C78.0055 13 106.505 -3.50004 125.505 1.49996Z" fill="#DB222D"/>
<circle cx="140.664" cy="128.964" r="86.9639" fill="#DB222D"/>
<circle cx="190.727" cy="144.491" r="9.58918" fill="black"/>
<circle cx="119.995" cy="144.393" r="9.58918" fill="black"/>
<path d="M155.307 170.843C149.401 171.06 142.511 168.241 141.199 170.843C139.886 173.445 148.089 177.348 155.307 177.565C162.525 177.782 172.04 173.445 167.775 170.843C163.51 168.241 161.213 170.626 155.307 170.843Z" fill="black"/>
<path d="M161.121 197.487C147.121 196.487 110.621 158.987 110.621 158.987L200.621 181.487C200.621 181.487 175.121 198.487 161.121 197.487Z" fill="#A5A5A5"/>
<path d="M165.621 145.987C148.621 142.487 135.44 159.872 110.121 158.487C110.121 158.487 177.621 179.987 188.121 179.987C198.621 179.987 220.621 208.987 220.621 208.987C220.621 208.987 219.296 190.375 214.121 179.987C203.807 159.282 182.621 149.487 165.621 145.987Z" fill="#D9D9D9"/>
<path d="M81.0237 321.77C87.619 310.822 93.0366 300.6 100.464 271.117C107.89 241.635 107.675 225.563 105.024 211.263C102.373 196.964 81.391 191.678 70.6779 202.611C59.9647 213.544 40.7882 300.388 44.3166 317.976C47.8449 335.564 74.4284 332.718 81.0237 321.77Z" fill="#DB222D"/>
<path d="M37.2561 238.126C41.4385 227.946 83.3959 205.866 83.3959 205.866L79.4618 242.641L41.4803 265.146C41.4803 265.146 33.0737 248.306 37.2561 238.126Z" fill="#DB222D"/>
<path d="M25.1733 273.721C29.3558 263.541 71.3132 241.461 71.3132 241.461L67.3791 278.236L29.3976 300.741C29.3976 300.741 20.9909 283.901 25.1733 273.721Z" fill="#DB222D"/>
<path d="M25.0425 302.164C29.2249 291.984 71.1823 269.904 71.1823 269.904L67.2482 306.679L29.2667 329.184C29.2667 329.184 20.8601 312.344 25.0425 302.164Z" fill="#DB222D"/>
</svg>
