<svg width="393" height="413" viewBox="0 0 393 413" fill="none" xmlns="http://www.w3.org/2000/svg">
<mask id="mask0_311_295" style="mask-type:alpha" maskUnits="userSpaceOnUse" x="50" y="373" width="75" height="40">
<path d="M58.2302 382.499C72.3012 379.184 111.7 369.57 117.84 374.542C123.98 379.515 128.074 397.417 117.84 407.693C107.607 417.97 61.5561 410.014 56.4393 407.693C51.3225 405.373 44.1591 385.814 58.2302 382.499Z" fill="#1B1B1B"/>
</mask>
<g mask="url(#mask0_311_295)">
<rect x="15.6167" y="344.705" width="144.83" height="85.3106" fill="#DB222D"/>
</g>
<path d="M134.985 306.463C127.267 295.589 83.3502 298.252 79.6291 306.463L69.5119 376.601C67.4219 389.141 123.1 401.501 130.818 392.624C134.641 388.227 129.751 368.32 130.818 349.431C131.906 330.188 138.88 311.95 134.985 306.463Z" fill="#192347"/>
<path d="M46.0373 389.998C44.384 380.408 47.9686 379.998 66.2077 379.086C84.4467 378.174 83.7327 404.547 83.7327 410.829C83.7327 417.112 53.6425 407.523 53.6425 407.523C53.6425 407.523 47.6906 399.587 46.0373 389.998Z" fill="#AD162B"/>
<mask id="mask1_311_295" style="mask-type:alpha" maskUnits="userSpaceOnUse" x="149" y="373" width="75" height="40">
<path d="M215.179 382.499C201.107 379.184 161.709 369.57 155.568 374.542C149.428 379.515 145.335 397.417 155.568 407.693C165.802 417.97 211.853 410.014 216.969 407.693C222.086 405.373 229.25 385.814 215.179 382.499Z" fill="#1B1B1B"/>
</mask>
<g mask="url(#mask1_311_295)">
<rect width="144.83" height="85.3106" transform="matrix(-1 0 0 1 257.792 344.705)" fill="#DB222D"/>
</g>
<path d="M138.423 306.463C146.141 295.589 190.059 298.252 193.78 306.463L206.058 379.388C199.994 388.264 147.539 397.501 142.662 393.321C137.785 389.141 142.662 364.758 142.662 350.128C142.662 335.498 134.193 312.424 138.423 306.463Z" fill="#192347"/>
<path d="M227.371 389.998C229.025 380.408 225.44 379.998 207.201 379.086C188.962 378.174 189.676 404.547 189.676 410.829C189.676 417.112 219.766 407.523 219.766 407.523C219.766 407.523 225.718 399.587 227.371 389.998Z" fill="#AD162B"/>
<path d="M289.936 185.835C277.435 183.172 266.004 181.387 235.712 183.985C205.42 186.584 190.298 192.032 177.646 199.203C164.994 206.375 166.843 227.933 180.673 234.493C194.504 241.053 282.852 230.845 298.326 221.771C313.8 212.697 302.437 188.497 289.936 185.835Z" fill="#DB222D"/>
<path d="M225.15 254.498C214.162 253.866 179.601 221.409 179.601 221.409L215.647 213.129L249.313 241.689C249.313 241.689 236.137 255.13 225.15 254.498Z" fill="#DB222D"/>
<path d="M262.739 254.305C251.752 253.673 217.19 221.216 217.19 221.216L253.236 212.936L286.903 241.496C286.903 241.496 273.727 254.937 262.739 254.305Z" fill="#DB222D"/>
<path d="M289.668 245.149C278.681 244.517 244.119 212.06 244.119 212.06L280.165 203.78L313.832 232.34C313.832 232.34 300.656 245.781 289.668 245.149Z" fill="#DB222D"/>
<path d="M82.0767 211.818C94.3042 202.026 105.54 194.772 135.944 194.772C166.347 194.772 181.879 205.652 195.098 221.61C208.317 237.568 208.317 294.509 195.098 314.819C181.879 335.129 94.7619 335.129 78.5687 314.819C62.3755 294.509 69.8492 221.61 82.0767 211.818Z" fill="#A8A8B6"/>
<g opacity="0.5">
<path d="M120.604 269.075L116.17 225.811C146.9 227.833 163.137 225.854 190.779 218.165L191.957 229.661L170.721 238.582L145.63 282.374L129.001 286.577C124.551 281.769 121.309 275.959 120.604 269.075Z" fill="#272727"/>
<path d="M191.914 263.944C194.233 286.565 157.5 306.944 157.5 306.944C157.5 306.944 141.172 299.727 129.001 286.577L145.63 282.374L170.678 238.712L191.914 229.79C192.746 237.903 190.673 251.832 191.914 263.944Z" fill="#FFB39F"/>
<path d="M175.693 240.36C178.544 237.727 188.541 234.718 192.4 233.987L191.666 226.818C191.666 226.818 177.782 228.334 176.551 229.21C175.32 230.085 164.787 240.509 163.188 245.207C161.589 249.906 153.135 253.643 152.148 255.573C151.16 257.502 151.037 262.69 153.029 264.168C155.02 265.646 158.58 264.294 159.759 263.478C160.938 262.662 164.744 256.437 165.538 256.476C166.333 256.516 168.526 258.063 169.246 260.403C170.146 263.328 172.744 256.479 170.372 251.876C168 247.274 172.13 243.651 175.693 240.36Z" fill="#4360AC"/>
<path d="M144.65 276.659C141.8 279.291 130.029 282.389 126.17 283.12C126.17 283.12 127.152 284.643 129.162 286.81C131.173 288.977 132.364 289.855 132.364 289.855C132.364 289.855 142.562 288.685 143.793 287.809C145.024 286.933 155.557 276.51 157.156 271.811C158.755 267.113 167.209 263.376 168.196 261.446C169.183 259.516 169.307 254.329 167.315 252.851C165.323 251.373 165.958 253.615 164.779 254.43C164.232 254.809 162.645 258.068 161.263 260.162C159.666 262.582 156.405 264.483 153.646 262.937C150.887 261.391 151.818 258.956 151.098 256.616C150.198 253.691 147.599 260.54 149.971 265.142C152.343 269.745 148.214 273.368 144.65 276.659Z" fill="#C02C2C"/>
<path fill-rule="evenodd" clip-rule="evenodd" d="M136.067 242.758L136.295 244.983L128.943 245.737L128.851 232.755L131.71 232.462L131.703 229.715L122.854 230.622L122.848 233.246L125.571 232.967L125.812 246.058L122.952 246.351L123.206 248.823L138.999 247.204L138.926 242.465L136.067 242.758Z" fill="white"/>
<path fill-rule="evenodd" clip-rule="evenodd" d="M130.608 237.822L130.707 253.55C130.707 253.55 133.718 254.741 137.815 254.446C141.912 254.151 144.334 252.279 144.334 252.279L144.236 236.55C144.236 236.55 142.982 235.055 137.808 235.585C132.634 236.115 130.608 237.822 130.608 237.822ZM133.835 251.856L133.879 238.86L141.256 238.354L141.187 251.102L133.835 251.856Z" fill="white"/>
</g>
<path d="M62.7371 205.325C59.1025 190.066 86.3606 132.444 86.3606 132.444L111.432 179.233L88.7609 234.398C88.7609 234.398 66.3717 220.584 62.7371 205.325Z" fill="#AD162B"/>
<path d="M62.7371 205.325C59.1025 190.066 86.3606 132.444 86.3606 132.444L111.432 179.233L88.7609 234.398C88.7609 234.398 66.3717 220.584 62.7371 205.325Z" fill="#AD162B"/>
<path d="M62.7371 205.325C59.1025 190.066 86.3606 132.444 86.3606 132.444L111.432 179.233L88.7609 234.398C88.7609 234.398 66.3717 220.584 62.7371 205.325Z" fill="#AD162B"/>
<path d="M62.7371 205.325C59.1025 190.066 86.3606 132.444 86.3606 132.444L111.432 179.233L88.7609 234.398C88.7609 234.398 66.3717 220.584 62.7371 205.325Z" fill="#AD162B"/>
<path d="M36.543 120.301C35.5322 104.648 72.112 52.4436 72.112 52.4436L88.9386 102.789L57.2946 153.344C57.2946 153.344 37.5538 135.955 36.543 120.301Z" fill="#AD162B"/>
<path d="M36.543 120.301C35.5322 104.648 72.112 52.4436 72.112 52.4436L88.9386 102.789L57.2946 153.344C57.2946 153.344 37.5538 135.955 36.543 120.301Z" fill="#AD162B"/>
<path d="M36.543 120.301C35.5322 104.648 72.112 52.4436 72.112 52.4436L88.9386 102.789L57.2946 153.344C57.2946 153.344 37.5538 135.955 36.543 120.301Z" fill="#AD162B"/>
<path d="M36.543 120.301C35.5322 104.648 72.112 52.4436 72.112 52.4436L88.9386 102.789L57.2946 153.344C57.2946 153.344 37.5538 135.955 36.543 120.301Z" fill="#AD162B"/>
<path d="M36.5457 162.301C35.5349 146.648 72.1147 94.4436 72.1147 94.4436L88.9413 144.79L57.2972 195.344C57.2972 195.344 37.5565 177.955 36.5457 162.301Z" fill="#AD162B"/>
<path d="M36.5457 162.301C35.5349 146.648 72.1147 94.4436 72.1147 94.4436L88.9413 144.79L57.2972 195.344C57.2972 195.344 37.5565 177.955 36.5457 162.301Z" fill="#AD162B"/>
<path d="M36.5457 162.301C35.5349 146.648 72.1147 94.4436 72.1147 94.4436L88.9413 144.79L57.2972 195.344C57.2972 195.344 37.5565 177.955 36.5457 162.301Z" fill="#AD162B"/>
<path d="M36.5457 162.301C35.5349 146.648 72.1147 94.4436 72.1147 94.4436L88.9413 144.79L57.2972 195.344C57.2972 195.344 37.5565 177.955 36.5457 162.301Z" fill="#AD162B"/>
<path d="M92.922 36.199C108.089 40.2023 146.005 91.4436 146.005 91.4436H92.922L55.0054 45.4065C55.0054 45.4065 77.7554 32.1958 92.922 36.199Z" fill="#DB222D"/>
<path d="M125.505 0.94356C144.505 5.94356 192.005 69.9436 192.005 69.9436H125.505L78.0054 12.4436C78.0054 12.4436 106.505 -4.05644 125.505 0.94356Z" fill="#DB222D"/>
<circle cx="140.664" cy="128.408" r="86.9639" fill="#DB222D"/>
<circle cx="190.727" cy="143.935" r="9.58918" fill="black"/>
<circle cx="119.995" cy="143.837" r="9.58918" fill="black"/>
<path d="M155.307 170.287C149.401 170.503 142.511 167.685 141.199 170.287C139.886 172.889 148.089 176.792 155.307 177.009C162.525 177.225 172.04 172.889 167.775 170.287C163.51 167.685 161.213 170.07 155.307 170.287Z" fill="black"/>
<path d="M161.121 196.93C147.121 195.93 110.621 158.43 110.621 158.43L200.621 180.93C200.621 180.93 175.121 197.93 161.121 196.93Z" fill="#A5A5A5"/>
<path d="M165.621 145.43C148.621 141.93 135.44 159.316 110.121 157.93C110.121 157.93 177.621 179.43 188.121 179.43C198.621 179.43 220.621 208.43 220.621 208.43C220.621 208.43 219.296 189.819 214.121 179.43C203.807 158.726 182.621 148.93 165.621 145.43Z" fill="#D9D9D9"/>
<path d="M81.0237 321.214C87.619 310.265 93.0366 300.043 100.464 270.561C107.89 241.078 107.675 225.007 105.024 210.707C102.373 196.407 81.391 191.122 70.6779 202.055C59.9647 212.988 40.7882 299.831 44.3166 317.419C47.8449 335.007 74.4284 332.162 81.0237 321.214Z" fill="#DB222D"/>
<path d="M37.2561 237.569C41.4385 227.389 83.3959 205.309 83.3959 205.309L79.4618 242.085L41.4803 264.59C41.4803 264.59 33.0737 247.749 37.2561 237.569Z" fill="#DB222D"/>
<path d="M25.1733 273.165C29.3558 262.985 71.3132 240.904 71.3132 240.904L67.3791 277.68L29.3976 300.185C29.3976 300.185 20.9909 283.344 25.1733 273.165Z" fill="#DB222D"/>
<path d="M25.0425 301.607C29.2249 291.427 71.1823 269.347 71.1823 269.347L67.2482 306.122L29.2667 328.628C29.2667 328.628 20.8601 311.787 25.0425 301.607Z" fill="#DB222D"/>
<path d="M298 77.151C281.698 107.388 268.405 127.938 240 168.651C240 168.651 352 121.651 370 108.651C388 95.6508 410.5 63.6509 368 41.1509C325.5 18.6509 298 77.151 298 77.151Z" fill="white"/>
</svg>
