<svg width="329" height="352" viewBox="0 0 329 352" fill="none" xmlns="http://www.w3.org/2000/svg">
<g opacity="0.9">
<path d="M0 94.1909V0H72.1657H144.331V25.0279L101.927 39.5602L45.3011 128.369L12.6422 133.751C5.06602 122.409 1.39132e-06 109.178 0 94.1909Z" fill="#D0D0D0"/>
<path d="M144.224 94.4601C144.224 143.708 72.0586 181.923 72.0586 181.923C72.0586 181.923 33.3629 164.771 12.6422 133.751L45.3011 128.369L101.82 39.8293L144.224 25.297V94.4601Z" fill="#F8F8F8"/>
<path d="M111.097 44.4884C117.071 39.4459 136.8 35.1692 144.331 34.4469V18.8381C144.331 18.8381 117.455 19.04 114.927 20.6547C112.399 22.2694 90.1883 42.4005 86.2057 52.1703C82.223 61.9401 65.306 68.1251 63.0372 72.0645C60.7685 76.004 59.5141 87.1526 63.0372 90.7769C66.5603 94.4012 73.6401 92.2743 76.0575 90.7769C78.4749 89.2795 86.9818 76.7068 88.4951 76.9675C90.0084 77.2281 93.903 81.0465 94.822 86.2465C95.9709 92.7466 102.29 78.5646 98.6515 68.1251C95.0135 57.6855 103.63 50.7915 111.097 44.4884Z" fill="#B3B3B3"/>
<path d="M44.5474 115.838C38.5734 120.881 15.4327 124.955 7.90137 125.678C7.90137 125.678 9.48164 129.176 12.9056 134.289C16.3295 139.403 18.4365 141.556 18.4365 141.556C18.4365 141.556 38.1899 141.286 40.7179 139.672C43.2459 138.057 65.4564 117.926 69.4391 108.156C73.4218 98.3863 90.3388 92.2013 92.6076 88.2619C94.8763 84.3225 96.1307 73.1738 92.6076 69.5495C89.0844 65.9252 89.859 70.8952 87.4416 72.3925C86.3203 73.0871 82.6437 79.759 79.5873 83.9645C76.0545 88.8255 69.4391 92.2013 64.4608 88.2619C59.4824 84.3225 61.7418 79.28 60.8227 74.0799C59.6739 67.5798 53.3552 81.7618 56.9932 92.2013C60.6313 102.641 52.0149 109.535 44.5474 115.838Z" fill="#C8C8C8"/>
<path fill-rule="evenodd" clip-rule="evenodd" d="M34.7659 40.9058V45.7499H20.5435L22.9139 17.7618H28.4448L28.9716 11.8412H11.852L11.3252 17.4926H16.5928L14.4858 45.7499H8.95483V51.1323H39.5067L40.2969 40.9058H34.7659Z" fill="white"/>
<path fill-rule="evenodd" clip-rule="evenodd" d="M25.2842 29.0647L22.3871 62.9735C22.3871 62.9735 27.918 66.2029 35.8194 66.472C43.7207 66.7411 48.7249 63.2426 48.7249 63.2426L51.6221 29.3338C51.6221 29.3338 49.5151 25.8353 39.5067 25.8353C29.4983 25.8353 25.2842 29.0647 25.2842 29.0647ZM28.7082 60.0132L31.3419 32.025L45.5644 32.5633L42.9306 60.0132H28.7082Z" fill="white"/>
<path d="M184.669 264.268V170.077H256.834H329V195.105L286.596 209.637L229.97 298.446L197.311 303.828C189.735 292.486 184.669 279.255 184.669 264.268Z" fill="#D0D0D0"/>
<path d="M328.893 264.537C328.893 313.785 256.727 352 256.727 352C256.727 352 218.032 334.847 197.311 303.828L229.97 298.446L286.489 209.906L328.893 195.374V264.537Z" fill="#F8F8F8"/>
<path d="M295.766 214.565C301.74 209.523 321.469 205.246 329 204.524V188.915C329 188.915 302.124 189.117 299.596 190.732C297.068 192.346 274.857 212.477 270.874 222.247C266.892 232.017 249.975 238.202 247.706 242.141C245.437 246.081 244.183 257.23 247.706 260.854C251.229 264.478 258.309 262.351 260.726 260.854C263.144 259.356 271.65 246.784 273.164 247.044C274.677 247.305 278.572 251.123 279.491 256.323C280.64 262.824 286.958 248.642 283.32 238.202C279.682 227.762 288.299 220.868 295.766 214.565Z" fill="#B3B3B3"/>
<path d="M229.216 285.915C223.242 290.957 200.101 295.032 192.57 295.755C192.57 295.755 194.15 299.253 197.574 304.366C200.998 309.48 203.105 311.632 203.105 311.632C203.105 311.632 222.859 311.363 225.387 309.749C227.915 308.134 250.125 288.003 254.108 278.233C258.09 268.463 275.007 262.278 277.276 258.339C279.545 254.399 280.799 243.251 277.276 239.626C273.753 236.002 274.528 240.972 272.11 242.469C270.989 243.164 267.312 249.836 264.256 254.041C260.723 258.902 254.108 262.278 249.129 258.339C244.151 254.399 246.411 249.357 245.491 244.157C244.343 237.657 238.024 251.839 241.662 262.278C245.3 272.718 236.684 279.612 229.216 285.915Z" fill="#C8C8C8"/>
<path fill-rule="evenodd" clip-rule="evenodd" d="M219.435 210.983V215.827H205.212L207.583 187.839H213.114L213.64 181.918H196.521L195.994 187.57H201.262L199.154 215.827H193.624V221.209H224.175L224.966 210.983H219.435Z" fill="white"/>
<path fill-rule="evenodd" clip-rule="evenodd" d="M209.953 199.142L207.056 233.05C207.056 233.05 212.587 236.28 220.488 236.549C228.389 236.818 233.394 233.319 233.394 233.319L236.291 199.411C236.291 199.411 234.184 195.912 224.175 195.912C214.167 195.912 209.953 199.142 209.953 199.142ZM213.377 230.09L216.011 202.102L230.233 202.64L227.599 230.09H213.377Z" fill="white"/>
</g>
</svg>
