<svg width="349" height="430" viewBox="0 0 349 430" fill="none" xmlns="http://www.w3.org/2000/svg">
<mask id="mask0_125_72" style="mask-type:alpha" maskUnits="userSpaceOnUse" x="0" y="0" width="349" height="430">
<path d="M0 230.607V0H349V230.607C349 340.815 172.905 430 172.905 430C172.905 430 0 344 0 230.607Z" fill="#C4C4C4"/>
</mask>
<g mask="url(#mask0_125_72)">
<path d="M379 -42V97.592L392.5 270.616L223.5 280L-33.5 270.616L-44 -42H379Z" fill="#272727"/>
<path d="M458 428.5L-26.5 470.5L-60.5 278L52.5 269.5L182 263.5L389 -56.5C389 -23.6847 458 428.5 458 428.5Z" fill="#FFB39F"/>
<path fill-rule="evenodd" clip-rule="evenodd" d="M103.811 118.016V129.186H70.303L75.8877 64.6515H88.9186L90.1597 51H49.8257L48.5847 64.031H60.9951L56.031 129.186H43V141.596H114.981L116.842 118.016H103.811Z" fill="white"/>
<path fill-rule="evenodd" clip-rule="evenodd" d="M81.4723 90.7134L74.6466 168.899C74.6466 168.899 87.6776 176.345 106.293 176.966C124.909 177.586 136.699 169.52 136.699 169.52L143.525 91.3339C143.525 91.3339 138.56 83.2671 114.981 83.2671C91.4007 83.2671 81.4723 90.7134 81.4723 90.7134ZM89.5391 162.073L95.7444 97.5391L129.253 98.7801L123.047 162.073H89.5391Z" fill="white"/>
<path d="M135.063 314.315C128.962 311.527 133.58 303.196 127.339 296.41L142.626 242.361C143.784 237.317 151.507 227.822 155.723 222.472C160.993 215.784 190.584 211.668 198.799 203.377C205.372 196.743 331.25 23.3239 358.486 -18.1519L444.572 38.1551C417.134 64.2953 261.093 202.102 256.631 211.864C252.169 221.625 241.65 252.846 237.986 267.316C226.278 285.763 210.123 320.454 208.605 322.045C206.606 322.115 202.009 331.713 197.012 331.887C192.015 332.062 183.543 331.029 176.652 334.272C169.761 337.514 141.164 317.104 135.063 314.315Z" fill="#4360AC"/>
<path d="M72.2687 276.337C60.9917 274.329 40.7039 271.587 16.6225 271.469C-7.45881 271.351 -68.7576 270.912 -78.3616 272.876L-33.7858 204.995C-7.34423 212.41 43.1093 227.226 67.7523 232.968C89.9582 238.142 132.348 239.233 146.905 234.617C156.353 235.61 141.37 244.365 151.069 247.623C154.052 247.937 231.784 257.159 241.493 260.646C242.527 261.611 245.648 266.915 245.105 272.087C244.686 276.065 239.318 277.732 240.606 280.663C241.893 283.595 244.15 286.143 243.119 290.982C242.087 295.821 237.619 300.065 235.976 300.79C237.694 302.23 236.252 304.209 235.192 308.249C234.133 312.288 227.244 316.45 224.751 316.703C224.999 319.03 221.216 326.669 215.619 326.865C210.21 329.555 205.038 324.733 203.04 324.803C201.041 324.872 152.701 308.628 144.745 307.792C138.073 307.09 131.92 302.424 124.303 296.594C116.982 290.99 86.3648 278.847 72.2687 276.337Z" fill="#C02C2C"/>
<path d="M134.138 260.423C133.719 256.76 140.835 244.536 142.797 240.218C144.76 235.899 149.914 229.905 152.112 228.125L172.502 239.821C165.148 244.411 149.719 254.721 146.831 259.244C143.22 264.897 134.662 265.003 134.138 260.423Z" fill="#4360AC"/>
<path d="M139.896 292.456C136.474 291.697 132.638 302.502 131.252 307.012L193.243 329.48C197.18 326.734 200.901 321.217 199.192 316.648C197.484 312.078 192.392 308.45 190.175 308.716C187.959 308.982 186.565 311.828 186.565 311.828C188.166 307.008 187.395 303.934 184.844 302.169C182.293 300.404 176.339 299.779 174.56 301.088C172.781 302.398 169.607 306.554 169.607 306.554L168.784 303.973C168.829 301.816 169.279 296.143 163.816 293.973C158.352 291.802 154.147 297.446 153.451 298.869C152.754 300.293 149.299 301.925 149.299 301.925C149.299 301.925 147.237 300.711 146.904 298.68C146.57 296.65 143.319 293.215 139.896 292.456Z" fill="#4360AC"/>
</g>
</svg>
