<svg width="867" height="951" viewBox="0 0 867 951" fill="none" xmlns="http://www.w3.org/2000/svg">
<path d="M214 169C214 169 166 200 172.5 211C179 222 896.999 372 865.5 521.5C834 671 0 950.32 0 950.32V683.82C0 683.82 604 538.5 621.5 471C638.999 403.5 163.134 261.5 136.5 235.5C109.866 209.5 188.5 167.5 188.5 167.5L214 169Z" fill="#919191"/>
<path d="M54 134.718V101.513L68.2049 93.6007V79.315L93.8528 56.641L141.597 72.6618L155.013 69.2051V56.641L302.981 1L340.861 64.9305L387.027 56.641L389 176L299.035 173.308L177.504 167.026L171.585 169.718L168.429 167.026H109.636L54 134.718Z" fill="#C02C2C"/>
<path d="M109.636 167.026L112.004 69.2051M109.636 167.026H168.429M109.636 167.026L54 134.718V101.513L68.2049 93.6007M112.004 69.2051L133.311 74.7968M112.004 69.2051L93.8528 79.315M168.429 167.026V117.667M168.429 167.026L171.585 169.718M168.429 117.667H164.088V107.795L183.817 104.568M168.429 117.667L271.809 102.605L279.306 101.513M279.306 88.9487V101.513M279.306 88.9487L286.803 92.799M279.306 88.9487L183.817 104.568M279.306 101.513L299.035 106.897V97.9231L286.803 92.799M171.585 169.718V117.667M171.585 169.718L177.504 167.026L299.035 173.308M299.035 173.308V71L327.051 67.4103M299.035 173.308L389 176L387.027 56.641L340.861 64.9305M286.803 92.799V23.4359M302.981 14.4615L286.803 18.9487V23.4359M302.981 14.4615V1M302.981 14.4615L338.099 65.4265M302.981 1L155.013 56.641V69.2051M302.981 1L340.861 64.9305M155.013 69.2051L286.803 23.4359M155.013 69.2051L141.597 72.6618M286.803 23.4359L327.051 67.4103M327.051 67.4103L338.099 65.4265M340.861 64.9305L338.099 65.4265M183.817 104.568V88.0513L133.311 74.7968M133.311 74.7968L141.597 72.6618M93.8528 56.641V79.315M93.8528 56.641L141.597 72.6618M93.8528 56.641L68.2049 79.315V93.6007M93.8528 79.315L68.2049 93.6007" stroke="black"/>
</svg>
