<svg width="153" height="32" viewBox="0 0 153 32" fill="none" xmlns="http://www.w3.org/2000/svg">
<path d="M82.5 0.5C93.3919 0.272914 100.097 2.27974 104.139 4.45538C108.274 6.68145 112.844 9.5 117.54 9.5H134.612C138.039 9.5 141.303 10.9653 143.58 13.5265L151.609 22.5571C152.505 23.5647 153 24.866 153 26.2142V26.2142C153 29.3618 150.365 31.8683 147.221 31.7112L109.831 29.8424L71.2769 32L43.5448 29.8424L4.44189 31.7799C2.02509 31.8997 0 29.9724 0 27.5527V27.5527C0 25.5524 1.40027 23.8253 3.35725 23.4117L19.5 20L37.9461 14.2593C38.9684 13.9412 39.9412 13.4876 40.8672 12.9501C45.7666 10.1059 63.0692 0.905114 82.5 0.5Z" fill="#F4F4F4" fill-opacity="0.6"/>
</svg>
