<svg width="723" height="430" viewBox="0 0 723 430" fill="none" xmlns="http://www.w3.org/2000/svg">
<path d="M188.044 379.934C188.044 396.863 150.531 379.934 116.287 379.934C82.044 379.934 50.801 396.863 50.801 379.934C50.801 363.005 82.044 318.628 116.287 318.628C150.531 318.628 188.044 363.005 188.044 379.934Z" fill="#C4C4C4"/>
<path d="M213.899 196.344C206.654 181.853 205.307 144.559 208.326 124.588C199.966 107.171 111.411 85.2455 96.0841 93.6055C80.7575 101.965 66.1276 267.771 71.7009 280.311C77.2742 292.851 216.686 302.237 225.742 289.697C234.799 277.157 222.956 214.457 213.899 196.344Z" fill="black"/>
<mask id="mask0_136_140" style="mask-type:alpha" maskUnits="userSpaceOnUse" x="33" y="389" width="75" height="41">
<path d="M41.6092 399.068C55.6803 395.753 95.0792 386.14 101.219 391.112C107.359 396.085 111.453 413.986 101.219 424.263C90.9858 434.54 44.9351 426.584 39.8183 424.263C34.7016 421.942 27.5381 402.383 41.6092 399.068Z" fill="#1B1B1B"/>
</mask>
<g mask="url(#mask0_136_140)">
<rect x="-1.00435" y="361.275" width="144.83" height="85.3106" fill="#282828"/>
<path d="M29.4165 407.567C27.7632 397.978 31.3478 397.567 49.5868 396.656C67.8258 395.744 67.1119 422.116 67.1119 428.399C67.1119 434.682 37.0217 425.092 37.0217 425.092C37.0217 425.092 31.0698 417.156 29.4165 407.567Z" fill="#131313"/>
</g>
<path d="M118.364 323.032C110.647 312.159 66.7293 314.822 63.0082 323.032L52.891 393.171C50.801 405.711 106.48 418.07 114.197 409.194C118.02 404.797 113.13 384.889 114.197 366.001C115.285 346.758 122.259 328.52 118.364 323.032Z" fill="#6BA9CB"/>
<mask id="mask1_136_140" style="mask-type:alpha" maskUnits="userSpaceOnUse" x="132" y="389" width="75" height="41">
<path d="M198.557 399.068C184.486 395.753 145.087 386.14 138.947 391.112C132.807 396.085 128.714 413.986 138.947 424.263C149.181 434.54 195.231 426.584 200.348 424.263C205.465 421.942 212.628 402.383 198.557 399.068Z" fill="#1B1B1B"/>
</mask>
<g mask="url(#mask1_136_140)">
<rect width="144.83" height="85.3106" transform="matrix(-1 0 0 1 241.171 361.275)" fill="#282828"/>
<path d="M210.75 407.567C212.403 397.978 208.819 397.567 190.58 396.656C172.341 395.744 173.054 422.116 173.054 428.399C173.054 434.682 203.145 425.092 203.145 425.092C203.145 425.092 209.097 417.156 210.75 407.567Z" fill="#131313"/>
</g>
<path d="M121.802 323.032C129.52 312.159 173.437 314.822 177.158 323.032L189.437 395.957C183.373 404.834 130.917 414.071 126.041 409.891C121.164 405.711 126.041 381.328 126.041 366.698C126.041 352.068 117.571 328.993 121.802 323.032Z" fill="#6BA9CB"/>
<path d="M65.4556 228.388C77.6831 218.595 88.9192 211.342 119.323 211.342C149.726 211.342 165.258 222.222 178.477 238.18C191.696 254.138 191.696 311.079 178.477 331.389C165.258 351.699 78.1408 351.699 61.9476 331.389C45.7544 311.079 53.2281 238.18 65.4556 228.388Z" fill="#F9ECCA"/>
<path d="M156.849 217.917C169.076 214.196 180.313 211.44 210.716 211.44C241.12 211.44 256.652 215.575 269.871 221.639C283.09 227.703 283.09 249.34 269.871 257.058C256.652 264.776 167.755 262.157 151.561 254.439C135.368 246.722 144.621 221.639 156.849 217.917Z" fill="#F9ECCA"/>
<path d="M101.109 360.253C110.166 346.32 110.863 289.89 110.166 275.957C109.469 262.024 92.6008 213.954 78.6675 207.684C64.7343 201.414 55.7849 248.317 48.8596 262.024C41.9343 275.731 38.4096 381.85 48.8596 388.817C59.3095 395.783 92.0527 374.187 101.109 360.253Z" fill="#CEC0B8"/>
<path d="M147.637 363.911C132.311 354.158 132.311 302.605 132.311 278.918C132.311 255.231 155.997 208.555 155.997 208.555C155.997 208.555 242.383 203.678 247.957 213.432C253.53 223.185 259.103 271.951 259.103 271.951C259.103 271.951 201.28 264.985 191.527 278.918C181.774 292.851 197.1 385.507 191.527 389.687C185.954 393.867 162.964 373.664 147.637 363.911Z" fill="#CEC0B8"/>
<circle cx="124.043" cy="144.977" r="86.9639" fill="#F8B194"/>
<path d="M68.4188 112.226C62.1362 112.226 68.4188 125.652 68.4188 168.845C68.4188 187.699 52.8284 192.839 45.2277 214.128C35.4157 241.611 59.8576 286.581 26.4177 286.581C9.0012 286.581 21.5411 269.7 19.4511 258.286C17.3612 246.871 4.12456 230.848 0.641241 219.702C-2.84207 208.555 9.0012 191.138 9.00119 179.992C9.00118 168.845 4.82122 155.609 9.0012 140.979C13.1812 126.349 19.4511 122.169 26.4177 112.226C33.3844 102.284 39.5032 79.9599 45.2277 72.0092C52.8644 61.4026 67.5913 52.5288 86.3308 51.1092C98.3627 50.1978 112.458 55.2893 126.041 55.2892C142.674 55.2892 160.623 48.0223 174.807 55.2892C190.245 63.1987 201.351 85.981 204.763 93.6057C211.31 108.236 218.202 147.607 208.943 146.284C199.685 144.962 191.433 112.226 183.167 112.226C179.085 112.226 152.581 93.6057 126.041 93.6057C116.288 93.6057 106.531 95.9991 97.8794 99.0697C82.3993 104.564 70.4587 112.226 68.4188 112.226Z" fill="black"/>
<circle cx="174.105" cy="160.505" r="9.58918" fill="black"/>
<circle cx="103.374" cy="160.406" r="9.58918" fill="black"/>
<path d="M138.686 186.856C132.78 187.073 125.89 184.254 124.577 186.856C123.265 189.458 131.468 193.361 138.686 193.578C145.904 193.795 155.419 189.458 151.154 186.856C146.889 184.254 144.592 186.64 138.686 186.856Z" fill="black"/>
<path d="M168.001 261.2C158.344 252.827 149.2 245.739 121.425 233.372C93.6504 221.006 77.7793 218.466 63.2368 218.629C48.6943 218.792 39.8935 238.559 48.8305 250.986C57.7674 263.413 140.044 297.179 157.976 296.715C175.909 296.25 177.658 269.572 168.001 261.2Z" fill="#F9ECCA"/>
<path d="M151.885 250.78C149.385 240.28 138.515 238.718 113.501 227.581C88.4861 216.443 73.5565 215.583 59.5269 217.824C45.4972 220.066 34.244 245.341 41.106 259.198C47.968 273.056 137.385 329.28 147.885 313.78C158.385 298.28 154.385 261.28 151.885 250.78Z" fill="#CEC0B8"/>
<path d="M723 122.339C723 46.7572 679.861 0 543.809 0C460.103 0 396.013 42.5 382.007 73.5C368 104.5 374.235 140.25 374.235 140.25C374.235 140.25 283.377 179.697 280 190.438L377.891 176.378C381.763 188.307 446.913 216 543.809 216C664.929 216 723 194.272 723 122.339Z" fill="white"/>
<path d="M429.164 66.4668H435.902V68H427.279V53.7812H429.164V66.4668ZM437.279 62.6191C437.279 61.584 437.481 60.653 437.885 59.8262C438.295 58.9993 438.861 58.3613 439.584 57.9121C440.313 57.4629 441.143 57.2383 442.074 57.2383C443.513 57.2383 444.675 57.7363 445.561 58.7324C446.452 59.7285 446.898 61.0534 446.898 62.707V62.834C446.898 63.8626 446.7 64.7871 446.303 65.6074C445.912 66.4212 445.349 67.056 444.613 67.5117C443.884 67.9674 443.044 68.1953 442.094 68.1953C440.661 68.1953 439.499 67.6973 438.607 66.7012C437.722 65.7051 437.279 64.3867 437.279 62.7461V62.6191ZM439.096 62.834C439.096 64.0059 439.366 64.9466 439.906 65.6562C440.453 66.3659 441.182 66.7207 442.094 66.7207C443.012 66.7207 443.741 66.3626 444.281 65.6465C444.822 64.9238 445.092 63.9147 445.092 62.6191C445.092 61.4603 444.815 60.5228 444.262 59.8066C443.715 59.084 442.986 58.7227 442.074 58.7227C441.182 58.7227 440.463 59.0775 439.916 59.7871C439.369 60.4967 439.096 61.5124 439.096 62.834ZM448.686 62.6191C448.686 61.584 448.887 60.653 449.291 59.8262C449.701 58.9993 450.268 58.3613 450.99 57.9121C451.719 57.4629 452.549 57.2383 453.48 57.2383C454.919 57.2383 456.081 57.7363 456.967 58.7324C457.859 59.7285 458.305 61.0534 458.305 62.707V62.834C458.305 63.8626 458.106 64.7871 457.709 65.6074C457.318 66.4212 456.755 67.056 456.02 67.5117C455.29 67.9674 454.451 68.1953 453.5 68.1953C452.068 68.1953 450.906 67.6973 450.014 66.7012C449.128 65.7051 448.686 64.3867 448.686 62.7461V62.6191ZM450.502 62.834C450.502 64.0059 450.772 64.9466 451.312 65.6562C451.859 66.3659 452.589 66.7207 453.5 66.7207C454.418 66.7207 455.147 66.3626 455.688 65.6465C456.228 64.9238 456.498 63.9147 456.498 62.6191C456.498 61.4603 456.221 60.5228 455.668 59.8066C455.121 59.084 454.392 58.7227 453.48 58.7227C452.589 58.7227 451.869 59.0775 451.322 59.7871C450.775 60.4967 450.502 61.5124 450.502 62.834ZM463.52 63.1074L462.387 64.2891V68H460.58V53H462.387V62.0723L463.354 60.9102L466.645 57.4336H468.842L464.73 61.8477L469.32 68H467.201L463.52 63.1074ZM482.191 68C482.087 67.7917 482.003 67.4206 481.938 66.8867C481.098 67.7591 480.095 68.1953 478.93 68.1953C477.888 68.1953 477.032 67.9023 476.361 67.3164C475.697 66.724 475.365 65.9753 475.365 65.0703C475.365 63.9701 475.782 63.1172 476.615 62.5117C477.455 61.8997 478.633 61.5938 480.15 61.5938H481.908V60.7637C481.908 60.1322 481.719 59.6309 481.342 59.2598C480.964 58.8822 480.408 58.6934 479.672 58.6934C479.027 58.6934 478.487 58.8561 478.051 59.1816C477.615 59.5072 477.396 59.901 477.396 60.3633H475.58C475.58 59.8359 475.766 59.3281 476.137 58.8398C476.514 58.3451 477.022 57.9544 477.66 57.668C478.305 57.3815 479.011 57.2383 479.779 57.2383C480.997 57.2383 481.951 57.5443 482.641 58.1562C483.331 58.7617 483.689 59.5983 483.715 60.666V65.5293C483.715 66.4993 483.839 67.2708 484.086 67.8438V68H482.191ZM479.193 66.623C479.76 66.623 480.297 66.4766 480.805 66.1836C481.312 65.8906 481.68 65.5098 481.908 65.041V62.873H480.492C478.279 62.873 477.172 63.5208 477.172 64.8164C477.172 65.3828 477.361 65.8255 477.738 66.1445C478.116 66.4635 478.601 66.623 479.193 66.623ZM488.998 54.875V57.4336H490.971V58.8301H488.998V65.3828C488.998 65.806 489.086 66.125 489.262 66.3398C489.438 66.5482 489.737 66.6523 490.16 66.6523C490.368 66.6523 490.655 66.6133 491.02 66.5352V68C490.544 68.1302 490.082 68.1953 489.633 68.1953C488.826 68.1953 488.217 67.9512 487.807 67.4629C487.396 66.9746 487.191 66.2812 487.191 65.3828V58.8301H485.268V57.4336H487.191V54.875H488.998ZM502.289 66.7207C502.934 66.7207 503.497 66.5254 503.979 66.1348C504.46 65.7441 504.727 65.2559 504.779 64.6699H506.488C506.456 65.2754 506.247 65.8516 505.863 66.3984C505.479 66.9453 504.965 67.3815 504.32 67.707C503.682 68.0326 503.005 68.1953 502.289 68.1953C500.85 68.1953 499.704 67.7168 498.852 66.7598C498.005 65.7962 497.582 64.4811 497.582 62.8145V62.5117C497.582 61.4831 497.771 60.5684 498.148 59.7676C498.526 58.9668 499.066 58.3451 499.77 57.9023C500.479 57.4596 501.316 57.2383 502.279 57.2383C503.464 57.2383 504.447 57.5931 505.229 58.3027C506.016 59.0124 506.436 59.9336 506.488 61.0664H504.779C504.727 60.3828 504.467 59.8229 503.998 59.3867C503.536 58.944 502.963 58.7227 502.279 58.7227C501.361 58.7227 500.648 59.0547 500.141 59.7188C499.639 60.3763 499.389 61.3301 499.389 62.5801V62.9219C499.389 64.1393 499.639 65.0768 500.141 65.7344C500.642 66.3919 501.358 66.7207 502.289 66.7207ZM515.043 66.9551C514.34 67.7819 513.308 68.1953 511.947 68.1953C510.821 68.1953 509.962 67.8698 509.369 67.2188C508.783 66.5612 508.487 65.5911 508.48 64.3086V57.4336H510.287V64.2598C510.287 65.8613 510.938 66.6621 512.24 66.6621C513.62 66.6621 514.538 66.1478 514.994 65.1191V57.4336H516.801V68H515.082L515.043 66.9551ZM524.662 59.0547C524.389 59.0091 524.092 58.9863 523.773 58.9863C522.589 58.9863 521.785 59.4909 521.361 60.5V68H519.555V57.4336H521.312L521.342 58.6543C521.934 57.7103 522.774 57.2383 523.861 57.2383C524.213 57.2383 524.48 57.2839 524.662 57.375V59.0547ZM531.439 59.0547C531.166 59.0091 530.87 58.9863 530.551 58.9863C529.366 58.9863 528.562 59.4909 528.139 60.5V68H526.332V57.4336H528.09L528.119 58.6543C528.712 57.7103 529.551 57.2383 530.639 57.2383C530.99 57.2383 531.257 57.2839 531.439 57.375V59.0547ZM537.299 68.1953C535.867 68.1953 534.701 67.7266 533.803 66.7891C532.904 65.8451 532.455 64.5853 532.455 63.0098V62.6777C532.455 61.6296 532.654 60.6953 533.051 59.875C533.454 59.0482 534.014 58.4036 534.73 57.9414C535.453 57.4727 536.234 57.2383 537.074 57.2383C538.448 57.2383 539.516 57.6908 540.277 58.5957C541.039 59.5007 541.42 60.7962 541.42 62.4824V63.2344H534.262C534.288 64.276 534.59 65.1191 535.17 65.7637C535.756 66.4017 536.498 66.7207 537.396 66.7207C538.035 66.7207 538.575 66.5905 539.018 66.3301C539.46 66.0697 539.848 65.7246 540.18 65.2949L541.283 66.1543C540.398 67.515 539.07 68.1953 537.299 68.1953ZM537.074 58.7227C536.345 58.7227 535.733 58.9896 535.238 59.5234C534.743 60.0508 534.438 60.793 534.32 61.75H539.613V61.6133C539.561 60.6953 539.314 59.9857 538.871 59.4844C538.428 58.9766 537.829 58.7227 537.074 58.7227ZM545.229 57.4336L545.287 58.7617C546.094 57.7461 547.149 57.2383 548.451 57.2383C550.684 57.2383 551.811 58.498 551.83 61.0176V68H550.023V61.0078C550.017 60.2461 549.841 59.6829 549.496 59.3184C549.158 58.9538 548.627 58.7715 547.904 58.7715C547.318 58.7715 546.804 58.9277 546.361 59.2402C545.919 59.5527 545.574 59.9629 545.326 60.4707V68H543.52V57.4336H545.229ZM557.006 54.875V57.4336H558.979V58.8301H557.006V65.3828C557.006 65.806 557.094 66.125 557.27 66.3398C557.445 66.5482 557.745 66.6523 558.168 66.6523C558.376 66.6523 558.663 66.6133 559.027 66.5352V68C558.552 68.1302 558.09 68.1953 557.641 68.1953C556.833 68.1953 556.225 67.9512 555.814 67.4629C555.404 66.9746 555.199 66.2812 555.199 65.3828V58.8301H553.275V57.4336H555.199V54.875H557.006ZM570.443 68.1953C569.011 68.1953 567.846 67.7266 566.947 66.7891C566.049 65.8451 565.6 64.5853 565.6 63.0098V62.6777C565.6 61.6296 565.798 60.6953 566.195 59.875C566.599 59.0482 567.159 58.4036 567.875 57.9414C568.598 57.4727 569.379 57.2383 570.219 57.2383C571.592 57.2383 572.66 57.6908 573.422 58.5957C574.184 59.5007 574.564 60.7962 574.564 62.4824V63.2344H567.406C567.432 64.276 567.735 65.1191 568.314 65.7637C568.9 66.4017 569.643 66.7207 570.541 66.7207C571.179 66.7207 571.719 66.5905 572.162 66.3301C572.605 66.0697 572.992 65.7246 573.324 65.2949L574.428 66.1543C573.542 67.515 572.214 68.1953 570.443 68.1953ZM570.219 58.7227C569.49 58.7227 568.878 58.9896 568.383 59.5234C567.888 60.0508 567.582 60.793 567.465 61.75H572.758V61.6133C572.706 60.6953 572.458 59.9857 572.016 59.4844C571.573 58.9766 570.974 58.7227 570.219 58.7227ZM580.014 65.5488L582.631 57.4336H584.477L580.688 68H579.311L575.482 57.4336H577.328L580.014 65.5488ZM590.463 68.1953C589.031 68.1953 587.865 67.7266 586.967 66.7891C586.068 65.8451 585.619 64.5853 585.619 63.0098V62.6777C585.619 61.6296 585.818 60.6953 586.215 59.875C586.618 59.0482 587.178 58.4036 587.895 57.9414C588.617 57.4727 589.398 57.2383 590.238 57.2383C591.612 57.2383 592.68 57.6908 593.441 58.5957C594.203 59.5007 594.584 60.7962 594.584 62.4824V63.2344H587.426C587.452 64.276 587.755 65.1191 588.334 65.7637C588.92 66.4017 589.662 66.7207 590.561 66.7207C591.199 66.7207 591.739 66.5905 592.182 66.3301C592.624 66.0697 593.012 65.7246 593.344 65.2949L594.447 66.1543C593.562 67.515 592.234 68.1953 590.463 68.1953ZM590.238 58.7227C589.509 58.7227 588.897 58.9896 588.402 59.5234C587.908 60.0508 587.602 60.793 587.484 61.75H592.777V61.6133C592.725 60.6953 592.478 59.9857 592.035 59.4844C591.592 58.9766 590.993 58.7227 590.238 58.7227ZM598.393 57.4336L598.451 58.7617C599.258 57.7461 600.313 57.2383 601.615 57.2383C603.848 57.2383 604.975 58.498 604.994 61.0176V68H603.188V61.0078C603.181 60.2461 603.005 59.6829 602.66 59.3184C602.322 58.9538 601.791 58.7715 601.068 58.7715C600.482 58.7715 599.968 58.9277 599.525 59.2402C599.083 59.5527 598.738 59.9629 598.49 60.4707V68H596.684V57.4336H598.393ZM610.17 54.875V57.4336H612.143V58.8301H610.17V65.3828C610.17 65.806 610.258 66.125 610.434 66.3398C610.609 66.5482 610.909 66.6523 611.332 66.6523C611.54 66.6523 611.827 66.6133 612.191 66.5352V68C611.716 68.1302 611.254 68.1953 610.805 68.1953C609.997 68.1953 609.389 67.9512 608.979 67.4629C608.568 66.9746 608.363 66.2812 608.363 65.3828V58.8301H606.439V57.4336H608.363V54.875H610.17ZM620.414 65.1973C620.414 64.709 620.229 64.3314 619.857 64.0645C619.493 63.791 618.852 63.5566 617.934 63.3613C617.022 63.166 616.296 62.9316 615.756 62.6582C615.222 62.3848 614.825 62.0592 614.564 61.6816C614.311 61.304 614.184 60.8548 614.184 60.334C614.184 59.4681 614.548 58.7357 615.277 58.1367C616.013 57.5378 616.951 57.2383 618.09 57.2383C619.288 57.2383 620.258 57.5475 621 58.166C621.749 58.7845 622.123 59.5755 622.123 60.5391H620.307C620.307 60.0443 620.095 59.6178 619.672 59.2598C619.255 58.9017 618.728 58.7227 618.09 58.7227C617.432 58.7227 616.918 58.8659 616.547 59.1523C616.176 59.4388 615.99 59.8132 615.99 60.2754C615.99 60.7116 616.163 61.0404 616.508 61.2617C616.853 61.4831 617.475 61.6947 618.373 61.8965C619.278 62.0983 620.01 62.3392 620.57 62.6191C621.13 62.8991 621.544 63.2376 621.811 63.6348C622.084 64.0254 622.221 64.5039 622.221 65.0703C622.221 66.0143 621.843 66.7728 621.088 67.3457C620.333 67.9121 619.353 68.1953 618.148 68.1953C617.302 68.1953 616.553 68.0456 615.902 67.7461C615.251 67.4466 614.74 67.0299 614.369 66.4961C614.005 65.9557 613.822 65.373 613.822 64.748H615.629C615.661 65.3535 615.902 65.8353 616.352 66.1934C616.807 66.5449 617.406 66.7207 618.148 66.7207C618.832 66.7207 619.379 66.584 619.789 66.3105C620.206 66.0306 620.414 65.6595 620.414 65.1973ZM636.059 68C635.954 67.7917 635.87 67.4206 635.805 66.8867C634.965 67.7591 633.962 68.1953 632.797 68.1953C631.755 68.1953 630.899 67.9023 630.229 67.3164C629.564 66.724 629.232 65.9753 629.232 65.0703C629.232 63.9701 629.649 63.1172 630.482 62.5117C631.322 61.8997 632.501 61.5938 634.018 61.5938H635.775V60.7637C635.775 60.1322 635.587 59.6309 635.209 59.2598C634.831 58.8822 634.275 58.6934 633.539 58.6934C632.895 58.6934 632.354 58.8561 631.918 59.1816C631.482 59.5072 631.264 59.901 631.264 60.3633H629.447C629.447 59.8359 629.633 59.3281 630.004 58.8398C630.382 58.3451 630.889 57.9544 631.527 57.668C632.172 57.3815 632.878 57.2383 633.646 57.2383C634.864 57.2383 635.818 57.5443 636.508 58.1562C637.198 58.7617 637.556 59.5983 637.582 60.666V65.5293C637.582 66.4993 637.706 67.2708 637.953 67.8438V68H636.059ZM633.061 66.623C633.627 66.623 634.164 66.4766 634.672 66.1836C635.18 65.8906 635.548 65.5098 635.775 65.041V62.873H634.359C632.146 62.873 631.039 63.5208 631.039 64.8164C631.039 65.3828 631.228 65.8255 631.605 66.1445C631.983 66.4635 632.468 66.623 633.061 66.623ZM642.123 57.4336L642.182 58.7617C642.989 57.7461 644.044 57.2383 645.346 57.2383C647.579 57.2383 648.705 58.498 648.725 61.0176V68H646.918V61.0078C646.911 60.2461 646.736 59.6829 646.391 59.3184C646.052 58.9538 645.521 58.7715 644.799 58.7715C644.213 58.7715 643.699 58.9277 643.256 59.2402C642.813 59.5527 642.468 59.9629 642.221 60.4707V68H640.414V57.4336H642.123ZM651.01 62.6289C651.01 61.0078 651.394 59.7057 652.162 58.7227C652.93 57.7331 653.936 57.2383 655.18 57.2383C656.417 57.2383 657.396 57.6615 658.119 58.5078V53H659.926V68H658.266L658.178 66.8672C657.455 67.7526 656.449 68.1953 655.16 68.1953C653.936 68.1953 652.937 67.694 652.162 66.6914C651.394 65.6888 651.01 64.3802 651.01 62.7656V62.6289ZM652.816 62.834C652.816 64.0319 653.064 64.9694 653.559 65.6465C654.053 66.3236 654.737 66.6621 655.609 66.6621C656.755 66.6621 657.592 66.1478 658.119 65.1191V60.2656C657.579 59.2695 656.749 58.7715 655.629 58.7715C654.743 58.7715 654.053 59.1133 653.559 59.7969C653.064 60.4805 652.816 61.4928 652.816 62.834ZM414.369 91H412.562V80.4336H414.369V91ZM412.416 77.6309C412.416 77.3379 412.504 77.0905 412.68 76.8887C412.862 76.6868 413.129 76.5859 413.48 76.5859C413.832 76.5859 414.099 76.6868 414.281 76.8887C414.464 77.0905 414.555 77.3379 414.555 77.6309C414.555 77.9238 414.464 78.168 414.281 78.3633C414.099 78.5586 413.832 78.6562 413.48 78.6562C413.129 78.6562 412.862 78.5586 412.68 78.3633C412.504 78.168 412.416 77.9238 412.416 77.6309ZM423.422 88.1973C423.422 87.709 423.236 87.3314 422.865 87.0645C422.501 86.791 421.859 86.5566 420.941 86.3613C420.03 86.166 419.304 85.9316 418.764 85.6582C418.23 85.3848 417.833 85.0592 417.572 84.6816C417.318 84.304 417.191 83.8548 417.191 83.334C417.191 82.4681 417.556 81.7357 418.285 81.1367C419.021 80.5378 419.958 80.2383 421.098 80.2383C422.296 80.2383 423.266 80.5475 424.008 81.166C424.757 81.7845 425.131 82.5755 425.131 83.5391H423.314C423.314 83.0443 423.103 82.6178 422.68 82.2598C422.263 81.9017 421.736 81.7227 421.098 81.7227C420.44 81.7227 419.926 81.8659 419.555 82.1523C419.184 82.4388 418.998 82.8132 418.998 83.2754C418.998 83.7116 419.171 84.0404 419.516 84.2617C419.861 84.4831 420.482 84.6947 421.381 84.8965C422.286 85.0983 423.018 85.3392 423.578 85.6191C424.138 85.8991 424.551 86.2376 424.818 86.6348C425.092 87.0254 425.229 87.5039 425.229 88.0703C425.229 89.0143 424.851 89.7728 424.096 90.3457C423.34 90.9121 422.361 91.1953 421.156 91.1953C420.31 91.1953 419.561 91.0456 418.91 90.7461C418.259 90.4466 417.748 90.0299 417.377 89.4961C417.012 88.9557 416.83 88.373 416.83 87.748H418.637C418.669 88.3535 418.91 88.8353 419.359 89.1934C419.815 89.5449 420.414 89.7207 421.156 89.7207C421.84 89.7207 422.387 89.584 422.797 89.3105C423.214 89.0306 423.422 88.6595 423.422 88.1973ZM433.734 88.1973C433.734 87.709 433.549 87.3314 433.178 87.0645C432.813 86.791 432.172 86.5566 431.254 86.3613C430.342 86.166 429.617 85.9316 429.076 85.6582C428.542 85.3848 428.145 85.0592 427.885 84.6816C427.631 84.304 427.504 83.8548 427.504 83.334C427.504 82.4681 427.868 81.7357 428.598 81.1367C429.333 80.5378 430.271 80.2383 431.41 80.2383C432.608 80.2383 433.578 80.5475 434.32 81.166C435.069 81.7845 435.443 82.5755 435.443 83.5391H433.627C433.627 83.0443 433.415 82.6178 432.992 82.2598C432.576 81.9017 432.048 81.7227 431.41 81.7227C430.753 81.7227 430.238 81.8659 429.867 82.1523C429.496 82.4388 429.311 82.8132 429.311 83.2754C429.311 83.7116 429.483 84.0404 429.828 84.2617C430.173 84.4831 430.795 84.6947 431.693 84.8965C432.598 85.0983 433.331 85.3392 433.891 85.6191C434.451 85.8991 434.864 86.2376 435.131 86.6348C435.404 87.0254 435.541 87.5039 435.541 88.0703C435.541 89.0143 435.163 89.7728 434.408 90.3457C433.653 90.9121 432.673 91.1953 431.469 91.1953C430.622 91.1953 429.874 91.0456 429.223 90.7461C428.572 90.4466 428.061 90.0299 427.689 89.4961C427.325 88.9557 427.143 88.373 427.143 87.748H428.949C428.982 88.3535 429.223 88.8353 429.672 89.1934C430.128 89.5449 430.727 89.7207 431.469 89.7207C432.152 89.7207 432.699 89.584 433.109 89.3105C433.526 89.0306 433.734 88.6595 433.734 88.1973ZM444.418 89.9551C443.715 90.7819 442.683 91.1953 441.322 91.1953C440.196 91.1953 439.337 90.8698 438.744 90.2188C438.158 89.5612 437.862 88.5911 437.855 87.3086V80.4336H439.662V87.2598C439.662 88.8613 440.313 89.6621 441.615 89.6621C442.995 89.6621 443.913 89.1478 444.369 88.1191V80.4336H446.176V91H444.457L444.418 89.9551ZM453.314 91.1953C451.882 91.1953 450.717 90.7266 449.818 89.7891C448.92 88.8451 448.471 87.5853 448.471 86.0098V85.6777C448.471 84.6296 448.669 83.6953 449.066 82.875C449.47 82.0482 450.03 81.4036 450.746 80.9414C451.469 80.4727 452.25 80.2383 453.09 80.2383C454.464 80.2383 455.531 80.6908 456.293 81.5957C457.055 82.5007 457.436 83.7962 457.436 85.4824V86.2344H450.277C450.303 87.276 450.606 88.1191 451.186 88.7637C451.771 89.4017 452.514 89.7207 453.412 89.7207C454.05 89.7207 454.59 89.5905 455.033 89.3301C455.476 89.0697 455.863 88.7246 456.195 88.2949L457.299 89.1543C456.413 90.515 455.085 91.1953 453.314 91.1953ZM453.09 81.7227C452.361 81.7227 451.749 81.9896 451.254 82.5234C450.759 83.0508 450.453 83.793 450.336 84.75H455.629V84.6133C455.577 83.6953 455.329 82.9857 454.887 82.4844C454.444 81.9766 453.845 81.7227 453.09 81.7227ZM465.688 88.1973C465.688 87.709 465.502 87.3314 465.131 87.0645C464.766 86.791 464.125 86.5566 463.207 86.3613C462.296 86.166 461.57 85.9316 461.029 85.6582C460.495 85.3848 460.098 85.0592 459.838 84.6816C459.584 84.304 459.457 83.8548 459.457 83.334C459.457 82.4681 459.822 81.7357 460.551 81.1367C461.286 80.5378 462.224 80.2383 463.363 80.2383C464.561 80.2383 465.531 80.5475 466.273 81.166C467.022 81.7845 467.396 82.5755 467.396 83.5391H465.58C465.58 83.0443 465.368 82.6178 464.945 82.2598C464.529 81.9017 464.001 81.7227 463.363 81.7227C462.706 81.7227 462.191 81.8659 461.82 82.1523C461.449 82.4388 461.264 82.8132 461.264 83.2754C461.264 83.7116 461.436 84.0404 461.781 84.2617C462.126 84.4831 462.748 84.6947 463.646 84.8965C464.551 85.0983 465.284 85.3392 465.844 85.6191C466.404 85.8991 466.817 86.2376 467.084 86.6348C467.357 87.0254 467.494 87.5039 467.494 88.0703C467.494 89.0143 467.117 89.7728 466.361 90.3457C465.606 90.9121 464.626 91.1953 463.422 91.1953C462.576 91.1953 461.827 91.0456 461.176 90.7461C460.525 90.4466 460.014 90.0299 459.643 89.4961C459.278 88.9557 459.096 88.373 459.096 87.748H460.902C460.935 88.3535 461.176 88.8353 461.625 89.1934C462.081 89.5449 462.68 89.7207 463.422 89.7207C464.105 89.7207 464.652 89.584 465.062 89.3105C465.479 89.0306 465.688 88.6595 465.688 88.1973ZM477.26 77.875V80.4336H479.232V81.8301H477.26V88.3828C477.26 88.806 477.348 89.125 477.523 89.3398C477.699 89.5482 477.999 89.6523 478.422 89.6523C478.63 89.6523 478.917 89.6133 479.281 89.5352V91C478.806 91.1302 478.344 91.1953 477.895 91.1953C477.087 91.1953 476.479 90.9512 476.068 90.4629C475.658 89.9746 475.453 89.2812 475.453 88.3828V81.8301H473.529V80.4336H475.453V77.875H477.26ZM480.678 85.6191C480.678 84.584 480.88 83.653 481.283 82.8262C481.693 81.9993 482.26 81.3613 482.982 80.9121C483.712 80.4629 484.542 80.2383 485.473 80.2383C486.911 80.2383 488.074 80.7363 488.959 81.7324C489.851 82.7285 490.297 84.0534 490.297 85.707V85.834C490.297 86.8626 490.098 87.7871 489.701 88.6074C489.311 89.4212 488.747 90.056 488.012 90.5117C487.283 90.9674 486.443 91.1953 485.492 91.1953C484.06 91.1953 482.898 90.6973 482.006 89.7012C481.12 88.7051 480.678 87.3867 480.678 85.7461V85.6191ZM482.494 85.834C482.494 87.0059 482.764 87.9466 483.305 88.6562C483.852 89.3659 484.581 89.7207 485.492 89.7207C486.41 89.7207 487.139 89.3626 487.68 88.6465C488.22 87.9238 488.49 86.9147 488.49 85.6191C488.49 84.4603 488.214 83.5228 487.66 82.8066C487.113 82.084 486.384 81.7227 485.473 81.7227C484.581 81.7227 483.861 82.0775 483.314 82.7871C482.768 83.4967 482.494 84.5124 482.494 85.834ZM503.676 88.1973C503.676 87.709 503.49 87.3314 503.119 87.0645C502.755 86.791 502.113 86.5566 501.195 86.3613C500.284 86.166 499.558 85.9316 499.018 85.6582C498.484 85.3848 498.087 85.0592 497.826 84.6816C497.572 84.304 497.445 83.8548 497.445 83.334C497.445 82.4681 497.81 81.7357 498.539 81.1367C499.275 80.5378 500.212 80.2383 501.352 80.2383C502.549 80.2383 503.52 80.5475 504.262 81.166C505.01 81.7845 505.385 82.5755 505.385 83.5391H503.568C503.568 83.0443 503.357 82.6178 502.934 82.2598C502.517 81.9017 501.99 81.7227 501.352 81.7227C500.694 81.7227 500.18 81.8659 499.809 82.1523C499.438 82.4388 499.252 82.8132 499.252 83.2754C499.252 83.7116 499.424 84.0404 499.77 84.2617C500.115 84.4831 500.736 84.6947 501.635 84.8965C502.54 85.0983 503.272 85.3392 503.832 85.6191C504.392 85.8991 504.805 86.2376 505.072 86.6348C505.346 87.0254 505.482 87.5039 505.482 88.0703C505.482 89.0143 505.105 89.7728 504.35 90.3457C503.594 90.9121 502.615 91.1953 501.41 91.1953C500.564 91.1953 499.815 91.0456 499.164 90.7461C498.513 90.4466 498.002 90.0299 497.631 89.4961C497.266 88.9557 497.084 88.373 497.084 87.748H498.891C498.923 88.3535 499.164 88.8353 499.613 89.1934C500.069 89.5449 500.668 89.7207 501.41 89.7207C502.094 89.7207 502.641 89.584 503.051 89.3105C503.467 89.0306 503.676 88.6595 503.676 88.1973ZM512.221 91.1953C510.788 91.1953 509.623 90.7266 508.725 89.7891C507.826 88.8451 507.377 87.5853 507.377 86.0098V85.6777C507.377 84.6296 507.576 83.6953 507.973 82.875C508.376 82.0482 508.936 81.4036 509.652 80.9414C510.375 80.4727 511.156 80.2383 511.996 80.2383C513.37 80.2383 514.438 80.6908 515.199 81.5957C515.961 82.5007 516.342 83.7962 516.342 85.4824V86.2344H509.184C509.21 87.276 509.512 88.1191 510.092 88.7637C510.678 89.4017 511.42 89.7207 512.318 89.7207C512.956 89.7207 513.497 89.5905 513.939 89.3301C514.382 89.0697 514.77 88.7246 515.102 88.2949L516.205 89.1543C515.32 90.515 513.992 91.1953 512.221 91.1953ZM511.996 81.7227C511.267 81.7227 510.655 81.9896 510.16 82.5234C509.665 83.0508 509.359 83.793 509.242 84.75H514.535V84.6133C514.483 83.6953 514.236 82.9857 513.793 82.4844C513.35 81.9766 512.751 81.7227 511.996 81.7227ZM522.826 91.1953C521.394 91.1953 520.229 90.7266 519.33 89.7891C518.432 88.8451 517.982 87.5853 517.982 86.0098V85.6777C517.982 84.6296 518.181 83.6953 518.578 82.875C518.982 82.0482 519.542 81.4036 520.258 80.9414C520.98 80.4727 521.762 80.2383 522.602 80.2383C523.975 80.2383 525.043 80.6908 525.805 81.5957C526.566 82.5007 526.947 83.7962 526.947 85.4824V86.2344H519.789C519.815 87.276 520.118 88.1191 520.697 88.7637C521.283 89.4017 522.025 89.7207 522.924 89.7207C523.562 89.7207 524.102 89.5905 524.545 89.3301C524.988 89.0697 525.375 88.7246 525.707 88.2949L526.811 89.1543C525.925 90.515 524.597 91.1953 522.826 91.1953ZM522.602 81.7227C521.872 81.7227 521.26 81.9896 520.766 82.5234C520.271 83.0508 519.965 83.793 519.848 84.75H525.141V84.6133C525.089 83.6953 524.841 82.9857 524.398 82.4844C523.956 81.9766 523.357 81.7227 522.602 81.7227ZM533.529 85.6191C533.529 84.584 533.731 83.653 534.135 82.8262C534.545 81.9993 535.111 81.3613 535.834 80.9121C536.563 80.4629 537.393 80.2383 538.324 80.2383C539.763 80.2383 540.925 80.7363 541.811 81.7324C542.702 82.7285 543.148 84.0534 543.148 85.707V85.834C543.148 86.8626 542.95 87.7871 542.553 88.6074C542.162 89.4212 541.599 90.056 540.863 90.5117C540.134 90.9674 539.294 91.1953 538.344 91.1953C536.911 91.1953 535.749 90.6973 534.857 89.7012C533.972 88.7051 533.529 87.3867 533.529 85.7461V85.6191ZM535.346 85.834C535.346 87.0059 535.616 87.9466 536.156 88.6562C536.703 89.3659 537.432 89.7207 538.344 89.7207C539.262 89.7207 539.991 89.3626 540.531 88.6465C541.072 87.9238 541.342 86.9147 541.342 85.6191C541.342 84.4603 541.065 83.5228 540.512 82.8066C539.965 82.084 539.236 81.7227 538.324 81.7227C537.432 81.7227 536.713 82.0775 536.166 82.7871C535.619 83.4967 535.346 84.5124 535.346 85.834ZM551.938 89.9551C551.234 90.7819 550.202 91.1953 548.842 91.1953C547.715 91.1953 546.856 90.8698 546.264 90.2188C545.678 89.5612 545.382 88.5911 545.375 87.3086V80.4336H547.182V87.2598C547.182 88.8613 547.833 89.6621 549.135 89.6621C550.515 89.6621 551.433 89.1478 551.889 88.1191V80.4336H553.695V91H551.977L551.938 89.9551ZM561.557 82.0547C561.283 82.0091 560.987 81.9863 560.668 81.9863C559.483 81.9863 558.679 82.4909 558.256 83.5V91H556.449V80.4336H558.207L558.236 81.6543C558.829 80.7103 559.669 80.2383 560.756 80.2383C561.107 80.2383 561.374 80.2839 561.557 80.375V82.0547ZM573.295 82.0547C573.021 82.0091 572.725 81.9863 572.406 81.9863C571.221 81.9863 570.417 82.4909 569.994 83.5V91H568.188V80.4336H569.945L569.975 81.6543C570.567 80.7103 571.407 80.2383 572.494 80.2383C572.846 80.2383 573.113 80.2839 573.295 80.375V82.0547ZM579.154 91.1953C577.722 91.1953 576.557 90.7266 575.658 89.7891C574.76 88.8451 574.311 87.5853 574.311 86.0098V85.6777C574.311 84.6296 574.509 83.6953 574.906 82.875C575.31 82.0482 575.87 81.4036 576.586 80.9414C577.309 80.4727 578.09 80.2383 578.93 80.2383C580.303 80.2383 581.371 80.6908 582.133 81.5957C582.895 82.5007 583.275 83.7962 583.275 85.4824V86.2344H576.117C576.143 87.276 576.446 88.1191 577.025 88.7637C577.611 89.4017 578.354 89.7207 579.252 89.7207C579.89 89.7207 580.43 89.5905 580.873 89.3301C581.316 89.0697 581.703 88.7246 582.035 88.2949L583.139 89.1543C582.253 90.515 580.925 91.1953 579.154 91.1953ZM578.93 81.7227C578.201 81.7227 577.589 81.9896 577.094 82.5234C576.599 83.0508 576.293 83.793 576.176 84.75H581.469V84.6133C581.417 83.6953 581.169 82.9857 580.727 82.4844C580.284 81.9766 579.685 81.7227 578.93 81.7227ZM591.527 88.1973C591.527 87.709 591.342 87.3314 590.971 87.0645C590.606 86.791 589.965 86.5566 589.047 86.3613C588.135 86.166 587.41 85.9316 586.869 85.6582C586.335 85.3848 585.938 85.0592 585.678 84.6816C585.424 84.304 585.297 83.8548 585.297 83.334C585.297 82.4681 585.661 81.7357 586.391 81.1367C587.126 80.5378 588.064 80.2383 589.203 80.2383C590.401 80.2383 591.371 80.5475 592.113 81.166C592.862 81.7845 593.236 82.5755 593.236 83.5391H591.42C591.42 83.0443 591.208 82.6178 590.785 82.2598C590.368 81.9017 589.841 81.7227 589.203 81.7227C588.546 81.7227 588.031 81.8659 587.66 82.1523C587.289 82.4388 587.104 82.8132 587.104 83.2754C587.104 83.7116 587.276 84.0404 587.621 84.2617C587.966 84.4831 588.588 84.6947 589.486 84.8965C590.391 85.0983 591.124 85.3392 591.684 85.6191C592.243 85.8991 592.657 86.2376 592.924 86.6348C593.197 87.0254 593.334 87.5039 593.334 88.0703C593.334 89.0143 592.956 89.7728 592.201 90.3457C591.446 90.9121 590.466 91.1953 589.262 91.1953C588.415 91.1953 587.667 91.0456 587.016 90.7461C586.365 90.4466 585.854 90.0299 585.482 89.4961C585.118 88.9557 584.936 88.373 584.936 87.748H586.742C586.775 88.3535 587.016 88.8353 587.465 89.1934C587.921 89.5449 588.52 89.7207 589.262 89.7207C589.945 89.7207 590.492 89.584 590.902 89.3105C591.319 89.0306 591.527 88.6595 591.527 88.1973ZM600.072 91.1953C598.64 91.1953 597.475 90.7266 596.576 89.7891C595.678 88.8451 595.229 87.5853 595.229 86.0098V85.6777C595.229 84.6296 595.427 83.6953 595.824 82.875C596.228 82.0482 596.788 81.4036 597.504 80.9414C598.227 80.4727 599.008 80.2383 599.848 80.2383C601.221 80.2383 602.289 80.6908 603.051 81.5957C603.812 82.5007 604.193 83.7962 604.193 85.4824V86.2344H597.035C597.061 87.276 597.364 88.1191 597.943 88.7637C598.529 89.4017 599.271 89.7207 600.17 89.7207C600.808 89.7207 601.348 89.5905 601.791 89.3301C602.234 89.0697 602.621 88.7246 602.953 88.2949L604.057 89.1543C603.171 90.515 601.843 91.1953 600.072 91.1953ZM599.848 81.7227C599.118 81.7227 598.507 81.9896 598.012 82.5234C597.517 83.0508 597.211 83.793 597.094 84.75H602.387V84.6133C602.335 83.6953 602.087 82.9857 601.645 82.4844C601.202 81.9766 600.603 81.7227 599.848 81.7227ZM612.816 91C612.712 90.7917 612.628 90.4206 612.562 89.8867C611.723 90.7591 610.72 91.1953 609.555 91.1953C608.513 91.1953 607.657 90.9023 606.986 90.3164C606.322 89.724 605.99 88.9753 605.99 88.0703C605.99 86.9701 606.407 86.1172 607.24 85.5117C608.08 84.8997 609.258 84.5938 610.775 84.5938H612.533V83.7637C612.533 83.1322 612.344 82.6309 611.967 82.2598C611.589 81.8822 611.033 81.6934 610.297 81.6934C609.652 81.6934 609.112 81.8561 608.676 82.1816C608.24 82.5072 608.021 82.901 608.021 83.3633H606.205C606.205 82.8359 606.391 82.3281 606.762 81.8398C607.139 81.3451 607.647 80.9544 608.285 80.668C608.93 80.3815 609.636 80.2383 610.404 80.2383C611.622 80.2383 612.576 80.5443 613.266 81.1562C613.956 81.7617 614.314 82.5983 614.34 83.666V88.5293C614.34 89.4993 614.464 90.2708 614.711 90.8438V91H612.816ZM609.818 89.623C610.385 89.623 610.922 89.4766 611.43 89.1836C611.938 88.8906 612.305 88.5098 612.533 88.041V85.873H611.117C608.904 85.873 607.797 86.5208 607.797 87.8164C607.797 88.3828 607.986 88.8255 608.363 89.1445C608.741 89.4635 609.226 89.623 609.818 89.623ZM622.279 82.0547C622.006 82.0091 621.71 81.9863 621.391 81.9863C620.206 81.9863 619.402 82.4909 618.979 83.5V91H617.172V80.4336H618.93L618.959 81.6543C619.551 80.7103 620.391 80.2383 621.479 80.2383C621.83 80.2383 622.097 80.2839 622.279 80.375V82.0547ZM627.992 89.7207C628.637 89.7207 629.2 89.5254 629.682 89.1348C630.163 88.7441 630.43 88.2559 630.482 87.6699H632.191C632.159 88.2754 631.951 88.8516 631.566 89.3984C631.182 89.9453 630.668 90.3815 630.023 90.707C629.385 91.0326 628.708 91.1953 627.992 91.1953C626.553 91.1953 625.408 90.7168 624.555 89.7598C623.708 88.7962 623.285 87.4811 623.285 85.8145V85.5117C623.285 84.4831 623.474 83.5684 623.852 82.7676C624.229 81.9668 624.77 81.3451 625.473 80.9023C626.182 80.4596 627.019 80.2383 627.982 80.2383C629.167 80.2383 630.15 80.5931 630.932 81.3027C631.719 82.0124 632.139 82.9336 632.191 84.0664H630.482C630.43 83.3828 630.17 82.8229 629.701 82.3867C629.239 81.944 628.666 81.7227 627.982 81.7227C627.064 81.7227 626.352 82.0547 625.844 82.7188C625.342 83.3763 625.092 84.3301 625.092 85.5801V85.9219C625.092 87.1393 625.342 88.0768 625.844 88.7344C626.345 89.3919 627.061 89.7207 627.992 89.7207ZM636.029 81.7129C636.83 80.7298 637.872 80.2383 639.154 80.2383C641.387 80.2383 642.514 81.498 642.533 84.0176V91H640.727V84.0078C640.72 83.2461 640.544 82.6829 640.199 82.3184C639.861 81.9538 639.33 81.7715 638.607 81.7715C638.021 81.7715 637.507 81.9277 637.064 82.2402C636.622 82.5527 636.277 82.9629 636.029 83.4707V91H634.223V76H636.029V81.7129ZM647.26 86.9863H645.629L645.502 76.7812H647.396L647.26 86.9863ZM645.434 90.0918C645.434 89.7988 645.521 89.5547 645.697 89.3594C645.88 89.1576 646.146 89.0566 646.498 89.0566C646.85 89.0566 647.117 89.1576 647.299 89.3594C647.481 89.5547 647.572 89.7988 647.572 90.0918C647.572 90.3848 647.481 90.6289 647.299 90.8242C647.117 91.013 646.85 91.1074 646.498 91.1074C646.146 91.1074 645.88 91.013 645.697 90.8242C645.521 90.6289 645.434 90.3848 645.434 90.0918ZM665.072 78.3242H660.502V91H658.637V78.3242H654.076V76.7812H665.072V78.3242ZM665.443 85.6191C665.443 84.584 665.645 83.653 666.049 82.8262C666.459 81.9993 667.025 81.3613 667.748 80.9121C668.477 80.4629 669.307 80.2383 670.238 80.2383C671.677 80.2383 672.839 80.7363 673.725 81.7324C674.617 82.7285 675.062 84.0534 675.062 85.707V85.834C675.062 86.8626 674.864 87.7871 674.467 88.6074C674.076 89.4212 673.513 90.056 672.777 90.5117C672.048 90.9674 671.208 91.1953 670.258 91.1953C668.826 91.1953 667.663 90.6973 666.771 89.7012C665.886 88.7051 665.443 87.3867 665.443 85.7461V85.6191ZM667.26 85.834C667.26 87.0059 667.53 87.9466 668.07 88.6562C668.617 89.3659 669.346 89.7207 670.258 89.7207C671.176 89.7207 671.905 89.3626 672.445 88.6465C672.986 87.9238 673.256 86.9147 673.256 85.6191C673.256 84.4603 672.979 83.5228 672.426 82.8066C671.879 82.084 671.15 81.7227 670.238 81.7227C669.346 81.7227 668.627 82.0775 668.08 82.7871C667.533 83.4967 667.26 84.5124 667.26 85.834ZM431.41 114V104.83H429.74V103.434H431.41V102.35C431.41 101.217 431.713 100.341 432.318 99.7227C432.924 99.1042 433.78 98.7949 434.887 98.7949C435.303 98.7949 435.717 98.8503 436.127 98.9609L436.029 100.426C435.723 100.367 435.398 100.338 435.053 100.338C434.467 100.338 434.014 100.51 433.695 100.855C433.376 101.194 433.217 101.682 433.217 102.32V103.434H435.473V104.83H433.217V114H431.41ZM436.996 108.619C436.996 107.584 437.198 106.653 437.602 105.826C438.012 104.999 438.578 104.361 439.301 103.912C440.03 103.463 440.86 103.238 441.791 103.238C443.23 103.238 444.392 103.736 445.277 104.732C446.169 105.729 446.615 107.053 446.615 108.707V108.834C446.615 109.863 446.417 110.787 446.02 111.607C445.629 112.421 445.066 113.056 444.33 113.512C443.601 113.967 442.761 114.195 441.811 114.195C440.378 114.195 439.216 113.697 438.324 112.701C437.439 111.705 436.996 110.387 436.996 108.746V108.619ZM438.812 108.834C438.812 110.006 439.083 110.947 439.623 111.656C440.17 112.366 440.899 112.721 441.811 112.721C442.729 112.721 443.458 112.363 443.998 111.646C444.538 110.924 444.809 109.915 444.809 108.619C444.809 107.46 444.532 106.523 443.979 105.807C443.432 105.084 442.702 104.723 441.791 104.723C440.899 104.723 440.18 105.077 439.633 105.787C439.086 106.497 438.812 107.512 438.812 108.834ZM450.844 114H449.037V99H450.844V114ZM455.707 114H453.9V99H455.707V114ZM458.129 108.619C458.129 107.584 458.331 106.653 458.734 105.826C459.145 104.999 459.711 104.361 460.434 103.912C461.163 103.463 461.993 103.238 462.924 103.238C464.363 103.238 465.525 103.736 466.41 104.732C467.302 105.729 467.748 107.053 467.748 108.707V108.834C467.748 109.863 467.549 110.787 467.152 111.607C466.762 112.421 466.199 113.056 465.463 113.512C464.734 113.967 463.894 114.195 462.943 114.195C461.511 114.195 460.349 113.697 459.457 112.701C458.572 111.705 458.129 110.387 458.129 108.746V108.619ZM459.945 108.834C459.945 110.006 460.215 110.947 460.756 111.656C461.303 112.366 462.032 112.721 462.943 112.721C463.861 112.721 464.59 112.363 465.131 111.646C465.671 110.924 465.941 109.915 465.941 108.619C465.941 107.46 465.665 106.523 465.111 105.807C464.564 105.084 463.835 104.723 462.924 104.723C462.032 104.723 461.312 105.077 460.766 105.787C460.219 106.497 459.945 107.512 459.945 108.834ZM479.369 111.51L481.4 103.434H483.207L480.131 114H478.666L476.098 105.992L473.598 114H472.133L469.066 103.434H470.863L472.943 111.344L475.404 103.434H476.859L479.369 111.51ZM492.465 100.875V103.434H494.438V104.83H492.465V111.383C492.465 111.806 492.553 112.125 492.729 112.34C492.904 112.548 493.204 112.652 493.627 112.652C493.835 112.652 494.122 112.613 494.486 112.535V114C494.011 114.13 493.549 114.195 493.1 114.195C492.292 114.195 491.684 113.951 491.273 113.463C490.863 112.975 490.658 112.281 490.658 111.383V104.83H488.734V103.434H490.658V100.875H492.465ZM498.363 104.713C499.164 103.73 500.206 103.238 501.488 103.238C503.721 103.238 504.848 104.498 504.867 107.018V114H503.061V107.008C503.054 106.246 502.878 105.683 502.533 105.318C502.195 104.954 501.664 104.771 500.941 104.771C500.355 104.771 499.841 104.928 499.398 105.24C498.956 105.553 498.611 105.963 498.363 106.471V114H496.557V99H498.363V104.713ZM511.957 114.195C510.525 114.195 509.359 113.727 508.461 112.789C507.562 111.845 507.113 110.585 507.113 109.01V108.678C507.113 107.63 507.312 106.695 507.709 105.875C508.113 105.048 508.673 104.404 509.389 103.941C510.111 103.473 510.893 103.238 511.732 103.238C513.106 103.238 514.174 103.691 514.936 104.596C515.697 105.501 516.078 106.796 516.078 108.482V109.234H508.92C508.946 110.276 509.249 111.119 509.828 111.764C510.414 112.402 511.156 112.721 512.055 112.721C512.693 112.721 513.233 112.59 513.676 112.33C514.118 112.07 514.506 111.725 514.838 111.295L515.941 112.154C515.056 113.515 513.728 114.195 511.957 114.195ZM511.732 104.723C511.003 104.723 510.391 104.99 509.896 105.523C509.402 106.051 509.096 106.793 508.979 107.75H514.271V107.613C514.219 106.695 513.972 105.986 513.529 105.484C513.087 104.977 512.488 104.723 511.732 104.723ZM529.662 114C529.558 113.792 529.473 113.421 529.408 112.887C528.568 113.759 527.566 114.195 526.4 114.195C525.359 114.195 524.503 113.902 523.832 113.316C523.168 112.724 522.836 111.975 522.836 111.07C522.836 109.97 523.253 109.117 524.086 108.512C524.926 107.9 526.104 107.594 527.621 107.594H529.379V106.764C529.379 106.132 529.19 105.631 528.812 105.26C528.435 104.882 527.878 104.693 527.143 104.693C526.498 104.693 525.958 104.856 525.521 105.182C525.085 105.507 524.867 105.901 524.867 106.363H523.051C523.051 105.836 523.236 105.328 523.607 104.84C523.985 104.345 524.493 103.954 525.131 103.668C525.775 103.382 526.482 103.238 527.25 103.238C528.467 103.238 529.421 103.544 530.111 104.156C530.801 104.762 531.16 105.598 531.186 106.666V111.529C531.186 112.499 531.309 113.271 531.557 113.844V114H529.662ZM526.664 112.623C527.23 112.623 527.768 112.477 528.275 112.184C528.783 111.891 529.151 111.51 529.379 111.041V108.873H527.963C525.749 108.873 524.643 109.521 524.643 110.816C524.643 111.383 524.831 111.826 525.209 112.145C525.587 112.464 526.072 112.623 526.664 112.623ZM538.256 112.721C538.9 112.721 539.464 112.525 539.945 112.135C540.427 111.744 540.694 111.256 540.746 110.67H542.455C542.423 111.275 542.214 111.852 541.83 112.398C541.446 112.945 540.932 113.382 540.287 113.707C539.649 114.033 538.972 114.195 538.256 114.195C536.817 114.195 535.671 113.717 534.818 112.76C533.972 111.796 533.549 110.481 533.549 108.814V108.512C533.549 107.483 533.738 106.568 534.115 105.768C534.493 104.967 535.033 104.345 535.736 103.902C536.446 103.46 537.283 103.238 538.246 103.238C539.431 103.238 540.414 103.593 541.195 104.303C541.983 105.012 542.403 105.934 542.455 107.066H540.746C540.694 106.383 540.434 105.823 539.965 105.387C539.503 104.944 538.93 104.723 538.246 104.723C537.328 104.723 536.615 105.055 536.107 105.719C535.606 106.376 535.355 107.33 535.355 108.58V108.922C535.355 110.139 535.606 111.077 536.107 111.734C536.609 112.392 537.325 112.721 538.256 112.721ZM546.938 100.875V103.434H548.91V104.83H546.938V111.383C546.938 111.806 547.025 112.125 547.201 112.34C547.377 112.548 547.676 112.652 548.1 112.652C548.308 112.652 548.594 112.613 548.959 112.535V114C548.484 114.13 548.021 114.195 547.572 114.195C546.765 114.195 546.156 113.951 545.746 113.463C545.336 112.975 545.131 112.281 545.131 111.383V104.83H543.207V103.434H545.131V100.875H546.938ZM552.992 114H551.186V103.434H552.992V114ZM551.039 100.631C551.039 100.338 551.127 100.09 551.303 99.8887C551.485 99.6868 551.752 99.5859 552.104 99.5859C552.455 99.5859 552.722 99.6868 552.904 99.8887C553.087 100.09 553.178 100.338 553.178 100.631C553.178 100.924 553.087 101.168 552.904 101.363C552.722 101.559 552.455 101.656 552.104 101.656C551.752 101.656 551.485 101.559 551.303 101.363C551.127 101.168 551.039 100.924 551.039 100.631ZM559.379 111.549L561.996 103.434H563.842L560.053 114H558.676L554.848 103.434H556.693L559.379 111.549ZM567.543 114H565.736V103.434H567.543V114ZM565.59 100.631C565.59 100.338 565.678 100.09 565.854 99.8887C566.036 99.6868 566.303 99.5859 566.654 99.5859C567.006 99.5859 567.273 99.6868 567.455 99.8887C567.637 100.09 567.729 100.338 567.729 100.631C567.729 100.924 567.637 101.168 567.455 101.363C567.273 101.559 567.006 101.656 566.654 101.656C566.303 101.656 566.036 101.559 565.854 101.363C565.678 101.168 565.59 100.924 565.59 100.631ZM572.895 100.875V103.434H574.867V104.83H572.895V111.383C572.895 111.806 572.982 112.125 573.158 112.34C573.334 112.548 573.633 112.652 574.057 112.652C574.265 112.652 574.551 112.613 574.916 112.535V114C574.441 114.13 573.979 114.195 573.529 114.195C572.722 114.195 572.113 113.951 571.703 113.463C571.293 112.975 571.088 112.281 571.088 111.383V104.83H569.164V103.434H571.088V100.875H572.895ZM578.949 114H577.143V103.434H578.949V114ZM576.996 100.631C576.996 100.338 577.084 100.09 577.26 99.8887C577.442 99.6868 577.709 99.5859 578.061 99.5859C578.412 99.5859 578.679 99.6868 578.861 99.8887C579.044 100.09 579.135 100.338 579.135 100.631C579.135 100.924 579.044 101.168 578.861 101.363C578.679 101.559 578.412 101.656 578.061 101.656C577.709 101.656 577.442 101.559 577.26 101.363C577.084 101.168 576.996 100.924 576.996 100.631ZM586.234 114.195C584.802 114.195 583.637 113.727 582.738 112.789C581.84 111.845 581.391 110.585 581.391 109.01V108.678C581.391 107.63 581.589 106.695 581.986 105.875C582.39 105.048 582.95 104.404 583.666 103.941C584.389 103.473 585.17 103.238 586.01 103.238C587.383 103.238 588.451 103.691 589.213 104.596C589.975 105.501 590.355 106.796 590.355 108.482V109.234H583.197C583.223 110.276 583.526 111.119 584.105 111.764C584.691 112.402 585.434 112.721 586.332 112.721C586.97 112.721 587.51 112.59 587.953 112.33C588.396 112.07 588.783 111.725 589.115 111.295L590.219 112.154C589.333 113.515 588.005 114.195 586.234 114.195ZM586.01 104.723C585.281 104.723 584.669 104.99 584.174 105.523C583.679 106.051 583.373 106.793 583.256 107.75H588.549V107.613C588.497 106.695 588.249 105.986 587.807 105.484C587.364 104.977 586.765 104.723 586.01 104.723ZM598.607 111.197C598.607 110.709 598.422 110.331 598.051 110.064C597.686 109.791 597.045 109.557 596.127 109.361C595.215 109.166 594.49 108.932 593.949 108.658C593.415 108.385 593.018 108.059 592.758 107.682C592.504 107.304 592.377 106.855 592.377 106.334C592.377 105.468 592.742 104.736 593.471 104.137C594.206 103.538 595.144 103.238 596.283 103.238C597.481 103.238 598.451 103.548 599.193 104.166C599.942 104.785 600.316 105.576 600.316 106.539H598.5C598.5 106.044 598.288 105.618 597.865 105.26C597.449 104.902 596.921 104.723 596.283 104.723C595.626 104.723 595.111 104.866 594.74 105.152C594.369 105.439 594.184 105.813 594.184 106.275C594.184 106.712 594.356 107.04 594.701 107.262C595.046 107.483 595.668 107.695 596.566 107.896C597.471 108.098 598.204 108.339 598.764 108.619C599.324 108.899 599.737 109.238 600.004 109.635C600.277 110.025 600.414 110.504 600.414 111.07C600.414 112.014 600.036 112.773 599.281 113.346C598.526 113.912 597.546 114.195 596.342 114.195C595.495 114.195 594.747 114.046 594.096 113.746C593.445 113.447 592.934 113.03 592.562 112.496C592.198 111.956 592.016 111.373 592.016 110.748H593.822C593.855 111.354 594.096 111.835 594.545 112.193C595.001 112.545 595.6 112.721 596.342 112.721C597.025 112.721 597.572 112.584 597.982 112.311C598.399 112.031 598.607 111.66 598.607 111.197ZM607.25 108.619C607.25 107.584 607.452 106.653 607.855 105.826C608.266 104.999 608.832 104.361 609.555 103.912C610.284 103.463 611.114 103.238 612.045 103.238C613.484 103.238 614.646 103.736 615.531 104.732C616.423 105.729 616.869 107.053 616.869 108.707V108.834C616.869 109.863 616.671 110.787 616.273 111.607C615.883 112.421 615.32 113.056 614.584 113.512C613.855 113.967 613.015 114.195 612.064 114.195C610.632 114.195 609.47 113.697 608.578 112.701C607.693 111.705 607.25 110.387 607.25 108.746V108.619ZM609.066 108.834C609.066 110.006 609.337 110.947 609.877 111.656C610.424 112.366 611.153 112.721 612.064 112.721C612.982 112.721 613.712 112.363 614.252 111.646C614.792 110.924 615.062 109.915 615.062 108.619C615.062 107.46 614.786 106.523 614.232 105.807C613.686 105.084 612.956 104.723 612.045 104.723C611.153 104.723 610.434 105.077 609.887 105.787C609.34 106.497 609.066 107.512 609.066 108.834ZM620.023 114V104.83H618.354V103.434H620.023V102.35C620.023 101.217 620.326 100.341 620.932 99.7227C621.537 99.1042 622.393 98.7949 623.5 98.7949C623.917 98.7949 624.33 98.8503 624.74 98.9609L624.643 100.426C624.337 100.367 624.011 100.338 623.666 100.338C623.08 100.338 622.628 100.51 622.309 100.855C621.99 101.194 621.83 101.682 621.83 102.32V103.434H624.086V104.83H621.83V114H620.023ZM633.5 100.875V103.434H635.473V104.83H633.5V111.383C633.5 111.806 633.588 112.125 633.764 112.34C633.939 112.548 634.239 112.652 634.662 112.652C634.87 112.652 635.157 112.613 635.521 112.535V114C635.046 114.13 634.584 114.195 634.135 114.195C633.327 114.195 632.719 113.951 632.309 113.463C631.898 112.975 631.693 112.281 631.693 111.383V104.83H629.77V103.434H631.693V100.875H633.5ZM639.398 104.713C640.199 103.73 641.241 103.238 642.523 103.238C644.757 103.238 645.883 104.498 645.902 107.018V114H644.096V107.008C644.089 106.246 643.913 105.683 643.568 105.318C643.23 104.954 642.699 104.771 641.977 104.771C641.391 104.771 640.876 104.928 640.434 105.24C639.991 105.553 639.646 105.963 639.398 106.471V114H637.592V99H639.398V104.713ZM652.992 114.195C651.56 114.195 650.395 113.727 649.496 112.789C648.598 111.845 648.148 110.585 648.148 109.01V108.678C648.148 107.63 648.347 106.695 648.744 105.875C649.148 105.048 649.708 104.404 650.424 103.941C651.146 103.473 651.928 103.238 652.768 103.238C654.141 103.238 655.209 103.691 655.971 104.596C656.732 105.501 657.113 106.796 657.113 108.482V109.234H649.955C649.981 110.276 650.284 111.119 650.863 111.764C651.449 112.402 652.191 112.721 653.09 112.721C653.728 112.721 654.268 112.59 654.711 112.33C655.154 112.07 655.541 111.725 655.873 111.295L656.977 112.154C656.091 113.515 654.763 114.195 652.992 114.195ZM652.768 104.723C652.038 104.723 651.426 104.99 650.932 105.523C650.437 106.051 650.131 106.793 650.014 107.75H655.307V107.613C655.255 106.695 655.007 105.986 654.564 105.484C654.122 104.977 653.523 104.723 652.768 104.723ZM428.744 135.721C429.389 135.721 429.952 135.525 430.434 135.135C430.915 134.744 431.182 134.256 431.234 133.67H432.943C432.911 134.275 432.702 134.852 432.318 135.398C431.934 135.945 431.42 136.382 430.775 136.707C430.137 137.033 429.46 137.195 428.744 137.195C427.305 137.195 426.16 136.717 425.307 135.76C424.46 134.796 424.037 133.481 424.037 131.814V131.512C424.037 130.483 424.226 129.568 424.604 128.768C424.981 127.967 425.521 127.345 426.225 126.902C426.934 126.46 427.771 126.238 428.734 126.238C429.919 126.238 430.902 126.593 431.684 127.303C432.471 128.012 432.891 128.934 432.943 130.066H431.234C431.182 129.383 430.922 128.823 430.453 128.387C429.991 127.944 429.418 127.723 428.734 127.723C427.816 127.723 427.104 128.055 426.596 128.719C426.094 129.376 425.844 130.33 425.844 131.58V131.922C425.844 133.139 426.094 134.077 426.596 134.734C427.097 135.392 427.813 135.721 428.744 135.721ZM434.496 131.619C434.496 130.584 434.698 129.653 435.102 128.826C435.512 127.999 436.078 127.361 436.801 126.912C437.53 126.463 438.36 126.238 439.291 126.238C440.73 126.238 441.892 126.736 442.777 127.732C443.669 128.729 444.115 130.053 444.115 131.707V131.834C444.115 132.863 443.917 133.787 443.52 134.607C443.129 135.421 442.566 136.056 441.83 136.512C441.101 136.967 440.261 137.195 439.311 137.195C437.878 137.195 436.716 136.697 435.824 135.701C434.939 134.705 434.496 133.387 434.496 131.746V131.619ZM436.312 131.834C436.312 133.006 436.583 133.947 437.123 134.656C437.67 135.366 438.399 135.721 439.311 135.721C440.229 135.721 440.958 135.363 441.498 134.646C442.038 133.924 442.309 132.915 442.309 131.619C442.309 130.46 442.032 129.523 441.479 128.807C440.932 128.084 440.202 127.723 439.291 127.723C438.399 127.723 437.68 128.077 437.133 128.787C436.586 129.497 436.312 130.512 436.312 131.834ZM448.08 126.434L448.129 127.605C448.904 126.694 449.949 126.238 451.264 126.238C452.742 126.238 453.747 126.805 454.281 127.938C454.633 127.43 455.089 127.02 455.648 126.707C456.215 126.395 456.882 126.238 457.65 126.238C459.968 126.238 461.146 127.465 461.186 129.92V137H459.379V130.027C459.379 129.272 459.206 128.709 458.861 128.338C458.516 127.96 457.937 127.771 457.123 127.771C456.452 127.771 455.896 127.973 455.453 128.377C455.01 128.774 454.753 129.311 454.682 129.988V137H452.865V130.076C452.865 128.54 452.113 127.771 450.609 127.771C449.424 127.771 448.614 128.276 448.178 129.285V137H446.371V126.434H448.08ZM465.619 126.434L465.668 127.605C466.443 126.694 467.488 126.238 468.803 126.238C470.281 126.238 471.286 126.805 471.82 127.938C472.172 127.43 472.628 127.02 473.188 126.707C473.754 126.395 474.421 126.238 475.189 126.238C477.507 126.238 478.686 127.465 478.725 129.92V137H476.918V130.027C476.918 129.272 476.745 128.709 476.4 128.338C476.055 127.96 475.476 127.771 474.662 127.771C473.992 127.771 473.435 127.973 472.992 128.377C472.549 128.774 472.292 129.311 472.221 129.988V137H470.404V130.076C470.404 128.54 469.652 127.771 468.148 127.771C466.964 127.771 466.153 128.276 465.717 129.285V137H463.91V126.434H465.619ZM483.422 137H481.615V126.434H483.422V137ZM481.469 123.631C481.469 123.338 481.557 123.09 481.732 122.889C481.915 122.687 482.182 122.586 482.533 122.586C482.885 122.586 483.152 122.687 483.334 122.889C483.516 123.09 483.607 123.338 483.607 123.631C483.607 123.924 483.516 124.168 483.334 124.363C483.152 124.559 482.885 124.656 482.533 124.656C482.182 124.656 481.915 124.559 481.732 124.363C481.557 124.168 481.469 123.924 481.469 123.631ZM488.773 123.875V126.434H490.746V127.83H488.773V134.383C488.773 134.806 488.861 135.125 489.037 135.34C489.213 135.548 489.512 135.652 489.936 135.652C490.144 135.652 490.43 135.613 490.795 135.535V137C490.32 137.13 489.857 137.195 489.408 137.195C488.601 137.195 487.992 136.951 487.582 136.463C487.172 135.975 486.967 135.281 486.967 134.383V127.83H485.043V126.434H486.967V123.875H488.773ZM495.316 123.875V126.434H497.289V127.83H495.316V134.383C495.316 134.806 495.404 135.125 495.58 135.34C495.756 135.548 496.055 135.652 496.479 135.652C496.687 135.652 496.973 135.613 497.338 135.535V137C496.863 137.13 496.4 137.195 495.951 137.195C495.144 137.195 494.535 136.951 494.125 136.463C493.715 135.975 493.51 135.281 493.51 134.383V127.83H491.586V126.434H493.51V123.875H495.316ZM503.793 137.195C502.361 137.195 501.195 136.727 500.297 135.789C499.398 134.845 498.949 133.585 498.949 132.01V131.678C498.949 130.63 499.148 129.695 499.545 128.875C499.949 128.048 500.508 127.404 501.225 126.941C501.947 126.473 502.729 126.238 503.568 126.238C504.942 126.238 506.01 126.691 506.771 127.596C507.533 128.501 507.914 129.796 507.914 131.482V132.234H500.756C500.782 133.276 501.085 134.119 501.664 134.764C502.25 135.402 502.992 135.721 503.891 135.721C504.529 135.721 505.069 135.59 505.512 135.33C505.954 135.07 506.342 134.725 506.674 134.295L507.777 135.154C506.892 136.515 505.564 137.195 503.793 137.195ZM503.568 127.723C502.839 127.723 502.227 127.99 501.732 128.523C501.238 129.051 500.932 129.793 500.814 130.75H506.107V130.613C506.055 129.695 505.808 128.986 505.365 128.484C504.923 127.977 504.324 127.723 503.568 127.723ZM514.398 137.195C512.966 137.195 511.801 136.727 510.902 135.789C510.004 134.845 509.555 133.585 509.555 132.01V131.678C509.555 130.63 509.753 129.695 510.15 128.875C510.554 128.048 511.114 127.404 511.83 126.941C512.553 126.473 513.334 126.238 514.174 126.238C515.548 126.238 516.615 126.691 517.377 127.596C518.139 128.501 518.52 129.796 518.52 131.482V132.234H511.361C511.387 133.276 511.69 134.119 512.27 134.764C512.855 135.402 513.598 135.721 514.496 135.721C515.134 135.721 515.674 135.59 516.117 135.33C516.56 135.07 516.947 134.725 517.279 134.295L518.383 135.154C517.497 136.515 516.169 137.195 514.398 137.195ZM514.174 127.723C513.445 127.723 512.833 127.99 512.338 128.523C511.843 129.051 511.537 129.793 511.42 130.75H516.713V130.613C516.661 129.695 516.413 128.986 515.971 128.484C515.528 127.977 514.929 127.723 514.174 127.723ZM520.561 139.832L519.535 139.129C520.147 138.276 520.466 137.397 520.492 136.492V134.861H522.26V136.277C522.26 136.935 522.097 137.592 521.771 138.25C521.452 138.908 521.049 139.435 520.561 139.832ZM533.744 135.721C534.389 135.721 534.952 135.525 535.434 135.135C535.915 134.744 536.182 134.256 536.234 133.67H537.943C537.911 134.275 537.702 134.852 537.318 135.398C536.934 135.945 536.42 136.382 535.775 136.707C535.137 137.033 534.46 137.195 533.744 137.195C532.305 137.195 531.16 136.717 530.307 135.76C529.46 134.796 529.037 133.481 529.037 131.814V131.512C529.037 130.483 529.226 129.568 529.604 128.768C529.981 127.967 530.521 127.345 531.225 126.902C531.934 126.46 532.771 126.238 533.734 126.238C534.919 126.238 535.902 126.593 536.684 127.303C537.471 128.012 537.891 128.934 537.943 130.066H536.234C536.182 129.383 535.922 128.823 535.453 128.387C534.991 127.944 534.418 127.723 533.734 127.723C532.816 127.723 532.104 128.055 531.596 128.719C531.094 129.376 530.844 130.33 530.844 131.58V131.922C530.844 133.139 531.094 134.077 531.596 134.734C532.097 135.392 532.813 135.721 533.744 135.721ZM541.781 127.713C542.582 126.73 543.624 126.238 544.906 126.238C547.139 126.238 548.266 127.498 548.285 130.018V137H546.479V130.008C546.472 129.246 546.296 128.683 545.951 128.318C545.613 127.954 545.082 127.771 544.359 127.771C543.773 127.771 543.259 127.928 542.816 128.24C542.374 128.553 542.029 128.963 541.781 129.471V137H539.975V122H541.781V127.713ZM555.375 137.195C553.943 137.195 552.777 136.727 551.879 135.789C550.98 134.845 550.531 133.585 550.531 132.01V131.678C550.531 130.63 550.73 129.695 551.127 128.875C551.531 128.048 552.09 127.404 552.807 126.941C553.529 126.473 554.311 126.238 555.15 126.238C556.524 126.238 557.592 126.691 558.354 127.596C559.115 128.501 559.496 129.796 559.496 131.482V132.234H552.338C552.364 133.276 552.667 134.119 553.246 134.764C553.832 135.402 554.574 135.721 555.473 135.721C556.111 135.721 556.651 135.59 557.094 135.33C557.536 135.07 557.924 134.725 558.256 134.295L559.359 135.154C558.474 136.515 557.146 137.195 555.375 137.195ZM555.15 127.723C554.421 127.723 553.809 127.99 553.314 128.523C552.82 129.051 552.514 129.793 552.396 130.75H557.689V130.613C557.637 129.695 557.39 128.986 556.947 128.484C556.505 127.977 555.906 127.723 555.15 127.723ZM565.834 135.721C566.479 135.721 567.042 135.525 567.523 135.135C568.005 134.744 568.272 134.256 568.324 133.67H570.033C570.001 134.275 569.792 134.852 569.408 135.398C569.024 135.945 568.51 136.382 567.865 136.707C567.227 137.033 566.55 137.195 565.834 137.195C564.395 137.195 563.249 136.717 562.396 135.76C561.55 134.796 561.127 133.481 561.127 131.814V131.512C561.127 130.483 561.316 129.568 561.693 128.768C562.071 127.967 562.611 127.345 563.314 126.902C564.024 126.46 564.861 126.238 565.824 126.238C567.009 126.238 567.992 126.593 568.773 127.303C569.561 128.012 569.981 128.934 570.033 130.066H568.324C568.272 129.383 568.012 128.823 567.543 128.387C567.081 127.944 566.508 127.723 565.824 127.723C564.906 127.723 564.193 128.055 563.686 128.719C563.184 129.376 562.934 130.33 562.934 131.58V131.922C562.934 133.139 563.184 134.077 563.686 134.734C564.187 135.392 564.903 135.721 565.834 135.721ZM575.014 132.107L573.881 133.289V137H572.074V122H573.881V131.072L574.848 129.91L578.139 126.434H580.336L576.225 130.848L580.814 137H578.695L575.014 132.107ZM586.684 131.619C586.684 130.584 586.885 129.653 587.289 128.826C587.699 127.999 588.266 127.361 588.988 126.912C589.717 126.463 590.548 126.238 591.479 126.238C592.917 126.238 594.079 126.736 594.965 127.732C595.857 128.729 596.303 130.053 596.303 131.707V131.834C596.303 132.863 596.104 133.787 595.707 134.607C595.316 135.421 594.753 136.056 594.018 136.512C593.288 136.967 592.449 137.195 591.498 137.195C590.066 137.195 588.904 136.697 588.012 135.701C587.126 134.705 586.684 133.387 586.684 131.746V131.619ZM588.5 131.834C588.5 133.006 588.77 133.947 589.311 134.656C589.857 135.366 590.587 135.721 591.498 135.721C592.416 135.721 593.145 135.363 593.686 134.646C594.226 133.924 594.496 132.915 594.496 131.619C594.496 130.46 594.219 129.523 593.666 128.807C593.119 128.084 592.39 127.723 591.479 127.723C590.587 127.723 589.867 128.077 589.32 128.787C588.773 129.497 588.5 130.512 588.5 131.834ZM605.092 135.955C604.389 136.782 603.357 137.195 601.996 137.195C600.87 137.195 600.01 136.87 599.418 136.219C598.832 135.561 598.536 134.591 598.529 133.309V126.434H600.336V133.26C600.336 134.861 600.987 135.662 602.289 135.662C603.669 135.662 604.587 135.148 605.043 134.119V126.434H606.85V137H605.131L605.092 135.955ZM614.711 128.055C614.438 128.009 614.141 127.986 613.822 127.986C612.637 127.986 611.833 128.491 611.41 129.5V137H609.604V126.434H611.361L611.391 127.654C611.983 126.71 612.823 126.238 613.91 126.238C614.262 126.238 614.529 126.284 614.711 126.375V128.055ZM630.287 131.834C630.287 133.449 629.916 134.747 629.174 135.73C628.432 136.707 627.436 137.195 626.186 137.195C624.851 137.195 623.819 136.723 623.09 135.779L623.002 137H621.342V122H623.148V127.596C623.878 126.691 624.883 126.238 626.166 126.238C627.449 126.238 628.454 126.723 629.184 127.693C629.919 128.663 630.287 129.992 630.287 131.678V131.834ZM628.48 131.629C628.48 130.398 628.243 129.448 627.768 128.777C627.292 128.107 626.609 127.771 625.717 127.771C624.525 127.771 623.669 128.325 623.148 129.432V134.002C623.702 135.109 624.564 135.662 625.736 135.662C626.602 135.662 627.276 135.327 627.758 134.656C628.24 133.986 628.48 132.977 628.48 131.629ZM634.535 137H632.729V122H634.535V137ZM636.957 131.619C636.957 130.584 637.159 129.653 637.562 128.826C637.973 127.999 638.539 127.361 639.262 126.912C639.991 126.463 640.821 126.238 641.752 126.238C643.191 126.238 644.353 126.736 645.238 127.732C646.13 128.729 646.576 130.053 646.576 131.707V131.834C646.576 132.863 646.378 133.787 645.98 134.607C645.59 135.421 645.027 136.056 644.291 136.512C643.562 136.967 642.722 137.195 641.771 137.195C640.339 137.195 639.177 136.697 638.285 135.701C637.4 134.705 636.957 133.387 636.957 131.746V131.619ZM638.773 131.834C638.773 133.006 639.044 133.947 639.584 134.656C640.131 135.366 640.86 135.721 641.771 135.721C642.689 135.721 643.419 135.363 643.959 134.646C644.499 133.924 644.77 132.915 644.77 131.619C644.77 130.46 644.493 129.523 643.939 128.807C643.393 128.084 642.663 127.723 641.752 127.723C640.86 127.723 640.141 128.077 639.594 128.787C639.047 129.497 638.773 130.512 638.773 131.834ZM648.412 131.629C648.412 129.982 648.793 128.673 649.555 127.703C650.316 126.727 651.326 126.238 652.582 126.238C653.871 126.238 654.877 126.694 655.6 127.605L655.688 126.434H657.338V136.746C657.338 138.113 656.931 139.191 656.117 139.979C655.31 140.766 654.223 141.16 652.855 141.16C652.094 141.16 651.348 140.997 650.619 140.672C649.89 140.346 649.333 139.9 648.949 139.334L649.887 138.25C650.661 139.207 651.609 139.686 652.729 139.686C653.607 139.686 654.291 139.438 654.779 138.943C655.274 138.449 655.521 137.752 655.521 136.854V135.945C654.799 136.779 653.812 137.195 652.562 137.195C651.326 137.195 650.323 136.697 649.555 135.701C648.793 134.705 648.412 133.348 648.412 131.629ZM650.229 131.834C650.229 133.025 650.473 133.963 650.961 134.646C651.449 135.324 652.133 135.662 653.012 135.662C654.151 135.662 654.988 135.145 655.521 134.109V129.285C654.968 128.276 654.138 127.771 653.031 127.771C652.152 127.771 651.465 128.113 650.971 128.797C650.476 129.48 650.229 130.493 650.229 131.834ZM662.094 132.986H660.463L660.336 122.781H662.23L662.094 132.986ZM660.268 136.092C660.268 135.799 660.355 135.555 660.531 135.359C660.714 135.158 660.98 135.057 661.332 135.057C661.684 135.057 661.951 135.158 662.133 135.359C662.315 135.555 662.406 135.799 662.406 136.092C662.406 136.385 662.315 136.629 662.133 136.824C661.951 137.013 661.684 137.107 661.332 137.107C660.98 137.107 660.714 137.013 660.531 136.824C660.355 136.629 660.268 136.385 660.268 136.092ZM419.945 153.662C418.337 153.2 417.165 152.633 416.43 151.963C415.701 151.286 415.336 150.452 415.336 149.463C415.336 148.343 415.782 147.419 416.674 146.689C417.572 145.954 418.738 145.586 420.17 145.586C421.146 145.586 422.016 145.775 422.777 146.152C423.546 146.53 424.138 147.051 424.555 147.715C424.978 148.379 425.189 149.105 425.189 149.893H423.305C423.305 149.033 423.031 148.359 422.484 147.871C421.938 147.376 421.166 147.129 420.17 147.129C419.245 147.129 418.523 147.334 418.002 147.744C417.488 148.148 417.23 148.711 417.23 149.434C417.23 150.013 417.475 150.505 417.963 150.908C418.458 151.305 419.294 151.67 420.473 152.002C421.658 152.334 422.582 152.702 423.246 153.105C423.917 153.503 424.411 153.968 424.73 154.502C425.056 155.036 425.219 155.664 425.219 156.387C425.219 157.539 424.77 158.464 423.871 159.16C422.973 159.85 421.771 160.195 420.268 160.195C419.291 160.195 418.38 160.01 417.533 159.639C416.687 159.261 416.033 158.747 415.57 158.096C415.115 157.445 414.887 156.706 414.887 155.879H416.771C416.771 156.738 417.087 157.419 417.719 157.92C418.357 158.415 419.206 158.662 420.268 158.662C421.257 158.662 422.016 158.46 422.543 158.057C423.07 157.653 423.334 157.103 423.334 156.406C423.334 155.71 423.09 155.173 422.602 154.795C422.113 154.411 421.228 154.033 419.945 153.662ZM433.871 158.955C433.168 159.782 432.136 160.195 430.775 160.195C429.649 160.195 428.79 159.87 428.197 159.219C427.611 158.561 427.315 157.591 427.309 156.309V149.434H429.115V156.26C429.115 157.861 429.766 158.662 431.068 158.662C432.449 158.662 433.367 158.148 433.822 157.119V149.434H435.629V160H433.91L433.871 158.955ZM447.328 154.834C447.328 156.449 446.957 157.747 446.215 158.73C445.473 159.707 444.477 160.195 443.227 160.195C441.892 160.195 440.86 159.723 440.131 158.779L440.043 160H438.383V145H440.189V150.596C440.919 149.691 441.924 149.238 443.207 149.238C444.49 149.238 445.495 149.723 446.225 150.693C446.96 151.663 447.328 152.992 447.328 154.678V154.834ZM445.521 154.629C445.521 153.398 445.284 152.448 444.809 151.777C444.333 151.107 443.65 150.771 442.758 150.771C441.566 150.771 440.71 151.325 440.189 152.432V157.002C440.743 158.109 441.605 158.662 442.777 158.662C443.643 158.662 444.317 158.327 444.799 157.656C445.281 156.986 445.521 155.977 445.521 154.629ZM451.312 149.434L451.361 150.605C452.136 149.694 453.181 149.238 454.496 149.238C455.974 149.238 456.98 149.805 457.514 150.938C457.865 150.43 458.321 150.02 458.881 149.707C459.447 149.395 460.115 149.238 460.883 149.238C463.201 149.238 464.379 150.465 464.418 152.92V160H462.611V153.027C462.611 152.272 462.439 151.709 462.094 151.338C461.749 150.96 461.169 150.771 460.355 150.771C459.685 150.771 459.128 150.973 458.686 151.377C458.243 151.774 457.986 152.311 457.914 152.988V160H456.098V153.076C456.098 151.54 455.346 150.771 453.842 150.771C452.657 150.771 451.846 151.276 451.41 152.285V160H449.604V149.434H451.312ZM469.115 160H467.309V149.434H469.115V160ZM467.162 146.631C467.162 146.338 467.25 146.09 467.426 145.889C467.608 145.687 467.875 145.586 468.227 145.586C468.578 145.586 468.845 145.687 469.027 145.889C469.21 146.09 469.301 146.338 469.301 146.631C469.301 146.924 469.21 147.168 469.027 147.363C468.845 147.559 468.578 147.656 468.227 147.656C467.875 147.656 467.608 147.559 467.426 147.363C467.25 147.168 467.162 146.924 467.162 146.631ZM474.467 146.875V149.434H476.439V150.83H474.467V157.383C474.467 157.806 474.555 158.125 474.73 158.34C474.906 158.548 475.206 158.652 475.629 158.652C475.837 158.652 476.124 158.613 476.488 158.535V160C476.013 160.13 475.551 160.195 475.102 160.195C474.294 160.195 473.686 159.951 473.275 159.463C472.865 158.975 472.66 158.281 472.66 157.383V150.83H470.736V149.434H472.66V146.875H474.467ZM486.977 157.354L489.438 149.434H491.371L487.123 161.631C486.465 163.389 485.421 164.268 483.988 164.268L483.646 164.238L482.973 164.111V162.646L483.461 162.686C484.073 162.686 484.548 162.562 484.887 162.314C485.232 162.067 485.515 161.615 485.736 160.957L486.137 159.883L482.367 149.434H484.34L486.977 157.354ZM492.357 154.619C492.357 153.584 492.559 152.653 492.963 151.826C493.373 150.999 493.939 150.361 494.662 149.912C495.391 149.463 496.221 149.238 497.152 149.238C498.591 149.238 499.753 149.736 500.639 150.732C501.531 151.729 501.977 153.053 501.977 154.707V154.834C501.977 155.863 501.778 156.787 501.381 157.607C500.99 158.421 500.427 159.056 499.691 159.512C498.962 159.967 498.122 160.195 497.172 160.195C495.74 160.195 494.577 159.697 493.686 158.701C492.8 157.705 492.357 156.387 492.357 154.746V154.619ZM494.174 154.834C494.174 156.006 494.444 156.947 494.984 157.656C495.531 158.366 496.26 158.721 497.172 158.721C498.09 158.721 498.819 158.363 499.359 157.646C499.9 156.924 500.17 155.915 500.17 154.619C500.17 153.46 499.893 152.523 499.34 151.807C498.793 151.084 498.064 150.723 497.152 150.723C496.26 150.723 495.541 151.077 494.994 151.787C494.447 152.497 494.174 153.512 494.174 154.834ZM510.766 158.955C510.062 159.782 509.031 160.195 507.67 160.195C506.544 160.195 505.684 159.87 505.092 159.219C504.506 158.561 504.21 157.591 504.203 156.309V149.434H506.01V156.26C506.01 157.861 506.661 158.662 507.963 158.662C509.343 158.662 510.261 158.148 510.717 157.119V149.434H512.523V160H510.805L510.766 158.955ZM520.385 151.055C520.111 151.009 519.815 150.986 519.496 150.986C518.311 150.986 517.507 151.491 517.084 152.5V160H515.277V149.434H517.035L517.064 150.654C517.657 149.71 518.497 149.238 519.584 149.238C519.936 149.238 520.202 149.284 520.385 149.375V151.055ZM533.539 160C533.435 159.792 533.35 159.421 533.285 158.887C532.445 159.759 531.443 160.195 530.277 160.195C529.236 160.195 528.38 159.902 527.709 159.316C527.045 158.724 526.713 157.975 526.713 157.07C526.713 155.97 527.13 155.117 527.963 154.512C528.803 153.9 529.981 153.594 531.498 153.594H533.256V152.764C533.256 152.132 533.067 151.631 532.689 151.26C532.312 150.882 531.755 150.693 531.02 150.693C530.375 150.693 529.835 150.856 529.398 151.182C528.962 151.507 528.744 151.901 528.744 152.363H526.928C526.928 151.836 527.113 151.328 527.484 150.84C527.862 150.345 528.37 149.954 529.008 149.668C529.652 149.382 530.359 149.238 531.127 149.238C532.344 149.238 533.298 149.544 533.988 150.156C534.678 150.762 535.036 151.598 535.062 152.666V157.529C535.062 158.499 535.186 159.271 535.434 159.844V160H533.539ZM530.541 158.623C531.107 158.623 531.645 158.477 532.152 158.184C532.66 157.891 533.028 157.51 533.256 157.041V154.873H531.84C529.626 154.873 528.52 155.521 528.52 156.816C528.52 157.383 528.708 157.826 529.086 158.145C529.464 158.464 529.949 158.623 530.541 158.623ZM543.002 151.055C542.729 151.009 542.432 150.986 542.113 150.986C540.928 150.986 540.124 151.491 539.701 152.5V160H537.895V149.434H539.652L539.682 150.654C540.274 149.71 541.114 149.238 542.201 149.238C542.553 149.238 542.82 149.284 543.002 149.375V151.055ZM547.611 146.875V149.434H549.584V150.83H547.611V157.383C547.611 157.806 547.699 158.125 547.875 158.34C548.051 158.548 548.35 158.652 548.773 158.652C548.982 158.652 549.268 158.613 549.633 158.535V160C549.158 160.13 548.695 160.195 548.246 160.195C547.439 160.195 546.83 159.951 546.42 159.463C546.01 158.975 545.805 158.281 545.805 157.383V150.83H543.881V149.434H545.805V146.875H547.611ZM559.115 146.875V149.434H561.088V150.83H559.115V157.383C559.115 157.806 559.203 158.125 559.379 158.34C559.555 158.548 559.854 158.652 560.277 158.652C560.486 158.652 560.772 158.613 561.137 158.535V160C560.661 160.13 560.199 160.195 559.75 160.195C558.943 160.195 558.334 159.951 557.924 159.463C557.514 158.975 557.309 158.281 557.309 157.383V150.83H555.385V149.434H557.309V146.875H559.115ZM562.533 154.619C562.533 153.584 562.735 152.653 563.139 151.826C563.549 150.999 564.115 150.361 564.838 149.912C565.567 149.463 566.397 149.238 567.328 149.238C568.767 149.238 569.929 149.736 570.814 150.732C571.706 151.729 572.152 153.053 572.152 154.707V154.834C572.152 155.863 571.954 156.787 571.557 157.607C571.166 158.421 570.603 159.056 569.867 159.512C569.138 159.967 568.298 160.195 567.348 160.195C565.915 160.195 564.753 159.697 563.861 158.701C562.976 157.705 562.533 156.387 562.533 154.746V154.619ZM564.35 154.834C564.35 156.006 564.62 156.947 565.16 157.656C565.707 158.366 566.436 158.721 567.348 158.721C568.266 158.721 568.995 158.363 569.535 157.646C570.076 156.924 570.346 155.915 570.346 154.619C570.346 153.46 570.069 152.523 569.516 151.807C568.969 151.084 568.24 150.723 567.328 150.723C566.436 150.723 565.717 151.077 565.17 151.787C564.623 152.497 564.35 153.512 564.35 154.834ZM583.852 153.662C582.243 153.2 581.072 152.633 580.336 151.963C579.607 151.286 579.242 150.452 579.242 149.463C579.242 148.343 579.688 147.419 580.58 146.689C581.479 145.954 582.644 145.586 584.076 145.586C585.053 145.586 585.922 145.775 586.684 146.152C587.452 146.53 588.044 147.051 588.461 147.715C588.884 148.379 589.096 149.105 589.096 149.893H587.211C587.211 149.033 586.938 148.359 586.391 147.871C585.844 147.376 585.072 147.129 584.076 147.129C583.152 147.129 582.429 147.334 581.908 147.744C581.394 148.148 581.137 148.711 581.137 149.434C581.137 150.013 581.381 150.505 581.869 150.908C582.364 151.305 583.201 151.67 584.379 152.002C585.564 152.334 586.488 152.702 587.152 153.105C587.823 153.503 588.318 153.968 588.637 154.502C588.962 155.036 589.125 155.664 589.125 156.387C589.125 157.539 588.676 158.464 587.777 159.16C586.879 159.85 585.678 160.195 584.174 160.195C583.197 160.195 582.286 160.01 581.439 159.639C580.593 159.261 579.939 158.747 579.477 158.096C579.021 157.445 578.793 156.706 578.793 155.879H580.678C580.678 156.738 580.993 157.419 581.625 157.92C582.263 158.415 583.113 158.662 584.174 158.662C585.163 158.662 585.922 158.46 586.449 158.057C586.977 157.653 587.24 157.103 587.24 156.406C587.24 155.71 586.996 155.173 586.508 154.795C586.02 154.411 585.134 154.033 583.852 153.662ZM593.061 150.713C593.861 149.73 594.903 149.238 596.186 149.238C598.419 149.238 599.545 150.498 599.564 153.018V160H597.758V153.008C597.751 152.246 597.576 151.683 597.23 151.318C596.892 150.954 596.361 150.771 595.639 150.771C595.053 150.771 594.538 150.928 594.096 151.24C593.653 151.553 593.308 151.963 593.061 152.471V160H591.254V145H593.061V150.713ZM601.791 154.619C601.791 153.584 601.993 152.653 602.396 151.826C602.807 150.999 603.373 150.361 604.096 149.912C604.825 149.463 605.655 149.238 606.586 149.238C608.025 149.238 609.187 149.736 610.072 150.732C610.964 151.729 611.41 153.053 611.41 154.707V154.834C611.41 155.863 611.212 156.787 610.814 157.607C610.424 158.421 609.861 159.056 609.125 159.512C608.396 159.967 607.556 160.195 606.605 160.195C605.173 160.195 604.011 159.697 603.119 158.701C602.234 157.705 601.791 156.387 601.791 154.746V154.619ZM603.607 154.834C603.607 156.006 603.878 156.947 604.418 157.656C604.965 158.366 605.694 158.721 606.605 158.721C607.523 158.721 608.253 158.363 608.793 157.646C609.333 156.924 609.604 155.915 609.604 154.619C609.604 153.46 609.327 152.523 608.773 151.807C608.227 151.084 607.497 150.723 606.586 150.723C605.694 150.723 604.975 151.077 604.428 151.787C603.881 152.497 603.607 153.512 603.607 154.834ZM623.031 157.51L625.062 149.434H626.869L623.793 160H622.328L619.76 151.992L617.26 160H615.795L612.729 149.434H614.525L616.605 157.344L619.066 149.434H620.521L623.031 157.51ZM638.295 152.92L642.006 145.781H644.135L639.232 154.697V160H637.357V154.697L632.455 145.781H634.604L638.295 152.92ZM644.564 154.619C644.564 153.584 644.766 152.653 645.17 151.826C645.58 150.999 646.146 150.361 646.869 149.912C647.598 149.463 648.428 149.238 649.359 149.238C650.798 149.238 651.96 149.736 652.846 150.732C653.738 151.729 654.184 153.053 654.184 154.707V154.834C654.184 155.863 653.985 156.787 653.588 157.607C653.197 158.421 652.634 159.056 651.898 159.512C651.169 159.967 650.329 160.195 649.379 160.195C647.947 160.195 646.785 159.697 645.893 158.701C645.007 157.705 644.564 156.387 644.564 154.746V154.619ZM646.381 154.834C646.381 156.006 646.651 156.947 647.191 157.656C647.738 158.366 648.467 158.721 649.379 158.721C650.297 158.721 651.026 158.363 651.566 157.646C652.107 156.924 652.377 155.915 652.377 154.619C652.377 153.46 652.1 152.523 651.547 151.807C651 151.084 650.271 150.723 649.359 150.723C648.467 150.723 647.748 151.077 647.201 151.787C646.654 152.497 646.381 153.512 646.381 154.834ZM662.973 158.955C662.27 159.782 661.238 160.195 659.877 160.195C658.751 160.195 657.891 159.87 657.299 159.219C656.713 158.561 656.417 157.591 656.41 156.309V149.434H658.217V156.26C658.217 157.861 658.868 158.662 660.17 158.662C661.55 158.662 662.468 158.148 662.924 157.119V149.434H664.73V160H663.012L662.973 158.955ZM672.592 151.055C672.318 151.009 672.022 150.986 671.703 150.986C670.518 150.986 669.714 151.491 669.291 152.5V160H667.484V149.434H669.242L669.271 150.654C669.864 149.71 670.704 149.238 671.791 149.238C672.143 149.238 672.41 149.284 672.592 149.375V151.055ZM505.346 176.662C503.738 176.2 502.566 175.633 501.83 174.963C501.101 174.286 500.736 173.452 500.736 172.463C500.736 171.343 501.182 170.419 502.074 169.689C502.973 168.954 504.138 168.586 505.57 168.586C506.547 168.586 507.416 168.775 508.178 169.152C508.946 169.53 509.538 170.051 509.955 170.715C510.378 171.379 510.59 172.105 510.59 172.893H508.705C508.705 172.033 508.432 171.359 507.885 170.871C507.338 170.376 506.566 170.129 505.57 170.129C504.646 170.129 503.923 170.334 503.402 170.744C502.888 171.148 502.631 171.711 502.631 172.434C502.631 173.013 502.875 173.505 503.363 173.908C503.858 174.305 504.695 174.67 505.873 175.002C507.058 175.334 507.982 175.702 508.646 176.105C509.317 176.503 509.812 176.968 510.131 177.502C510.456 178.036 510.619 178.664 510.619 179.387C510.619 180.539 510.17 181.464 509.271 182.16C508.373 182.85 507.172 183.195 505.668 183.195C504.691 183.195 503.78 183.01 502.934 182.639C502.087 182.261 501.433 181.747 500.971 181.096C500.515 180.445 500.287 179.706 500.287 178.879H502.172C502.172 179.738 502.488 180.419 503.119 180.92C503.757 181.415 504.607 181.662 505.668 181.662C506.658 181.662 507.416 181.46 507.943 181.057C508.471 180.653 508.734 180.103 508.734 179.406C508.734 178.71 508.49 178.173 508.002 177.795C507.514 177.411 506.628 177.033 505.346 176.662ZM512.27 177.619C512.27 176.584 512.471 175.653 512.875 174.826C513.285 173.999 513.852 173.361 514.574 172.912C515.303 172.463 516.133 172.238 517.064 172.238C518.503 172.238 519.665 172.736 520.551 173.732C521.443 174.729 521.889 176.053 521.889 177.707V177.834C521.889 178.863 521.69 179.787 521.293 180.607C520.902 181.421 520.339 182.056 519.604 182.512C518.874 182.967 518.035 183.195 517.084 183.195C515.652 183.195 514.49 182.697 513.598 181.701C512.712 180.705 512.27 179.387 512.27 177.746V177.619ZM514.086 177.834C514.086 179.006 514.356 179.947 514.896 180.656C515.443 181.366 516.173 181.721 517.084 181.721C518.002 181.721 518.731 181.363 519.271 180.646C519.812 179.924 520.082 178.915 520.082 177.619C520.082 176.46 519.805 175.523 519.252 174.807C518.705 174.084 517.976 173.723 517.064 173.723C516.173 173.723 515.453 174.077 514.906 174.787C514.359 175.497 514.086 176.512 514.086 177.834ZM526.117 183H524.311V168H526.117V183ZM530.98 183H529.174V172.434H530.98V183ZM529.027 169.631C529.027 169.338 529.115 169.09 529.291 168.889C529.473 168.687 529.74 168.586 530.092 168.586C530.443 168.586 530.71 168.687 530.893 168.889C531.075 169.09 531.166 169.338 531.166 169.631C531.166 169.924 531.075 170.168 530.893 170.363C530.71 170.559 530.443 170.656 530.092 170.656C529.74 170.656 529.473 170.559 529.291 170.363C529.115 170.168 529.027 169.924 529.027 169.631ZM533.441 177.629C533.441 176.008 533.826 174.706 534.594 173.723C535.362 172.733 536.368 172.238 537.611 172.238C538.848 172.238 539.828 172.661 540.551 173.508V168H542.357V183H540.697L540.609 181.867C539.887 182.753 538.881 183.195 537.592 183.195C536.368 183.195 535.368 182.694 534.594 181.691C533.826 180.689 533.441 179.38 533.441 177.766V177.629ZM535.248 177.834C535.248 179.032 535.495 179.969 535.99 180.646C536.485 181.324 537.169 181.662 538.041 181.662C539.187 181.662 540.023 181.148 540.551 180.119V175.266C540.01 174.27 539.18 173.771 538.061 173.771C537.175 173.771 536.485 174.113 535.99 174.797C535.495 175.48 535.248 176.493 535.248 177.834ZM551.693 183C551.589 182.792 551.505 182.421 551.439 181.887C550.6 182.759 549.597 183.195 548.432 183.195C547.39 183.195 546.534 182.902 545.863 182.316C545.199 181.724 544.867 180.975 544.867 180.07C544.867 178.97 545.284 178.117 546.117 177.512C546.957 176.9 548.135 176.594 549.652 176.594H551.41V175.764C551.41 175.132 551.221 174.631 550.844 174.26C550.466 173.882 549.91 173.693 549.174 173.693C548.529 173.693 547.989 173.856 547.553 174.182C547.117 174.507 546.898 174.901 546.898 175.363H545.082C545.082 174.836 545.268 174.328 545.639 173.84C546.016 173.345 546.524 172.954 547.162 172.668C547.807 172.382 548.513 172.238 549.281 172.238C550.499 172.238 551.452 172.544 552.143 173.156C552.833 173.762 553.191 174.598 553.217 175.666V180.529C553.217 181.499 553.34 182.271 553.588 182.844V183H551.693ZM548.695 181.623C549.262 181.623 549.799 181.477 550.307 181.184C550.814 180.891 551.182 180.51 551.41 180.041V177.873H549.994C547.781 177.873 546.674 178.521 546.674 179.816C546.674 180.383 546.863 180.826 547.24 181.145C547.618 181.464 548.103 181.623 548.695 181.623ZM561.156 174.055C560.883 174.009 560.587 173.986 560.268 173.986C559.083 173.986 558.279 174.491 557.855 175.5V183H556.049V172.434H557.807L557.836 173.654C558.428 172.71 559.268 172.238 560.355 172.238C560.707 172.238 560.974 172.284 561.156 172.375V174.055ZM564.789 183H562.982V172.434H564.789V183ZM562.836 169.631C562.836 169.338 562.924 169.09 563.1 168.889C563.282 168.687 563.549 168.586 563.9 168.586C564.252 168.586 564.519 168.687 564.701 168.889C564.883 169.09 564.975 169.338 564.975 169.631C564.975 169.924 564.883 170.168 564.701 170.363C564.519 170.559 564.252 170.656 563.9 170.656C563.549 170.656 563.282 170.559 563.1 170.363C562.924 170.168 562.836 169.924 562.836 169.631ZM570.141 169.875V172.434H572.113V173.83H570.141V180.383C570.141 180.806 570.229 181.125 570.404 181.34C570.58 181.548 570.88 181.652 571.303 181.652C571.511 181.652 571.798 181.613 572.162 181.535V183C571.687 183.13 571.225 183.195 570.775 183.195C569.968 183.195 569.359 182.951 568.949 182.463C568.539 181.975 568.334 181.281 568.334 180.383V173.83H566.41V172.434H568.334V169.875H570.141ZM577.689 180.354L580.15 172.434H582.084L577.836 184.631C577.178 186.389 576.133 187.268 574.701 187.268L574.359 187.238L573.686 187.111V185.646L574.174 185.686C574.786 185.686 575.261 185.562 575.6 185.314C575.945 185.067 576.228 184.615 576.449 183.957L576.85 182.883L573.08 172.434H575.053L577.689 180.354ZM585.727 178.986H584.096L583.969 168.781H585.863L585.727 178.986ZM583.9 182.092C583.9 181.799 583.988 181.555 584.164 181.359C584.346 181.158 584.613 181.057 584.965 181.057C585.316 181.057 585.583 181.158 585.766 181.359C585.948 181.555 586.039 181.799 586.039 182.092C586.039 182.385 585.948 182.629 585.766 182.824C585.583 183.013 585.316 183.107 584.965 183.107C584.613 183.107 584.346 183.013 584.164 182.824C583.988 182.629 583.9 182.385 583.9 182.092Z" fill="black"/>
</svg>
